<?xml version="1.0" encoding="UTF-8"?><svg xmlns="http://www.w3.org/2000/svg" xmlns:xlink="http://www.w3.org/1999/xlink" fill-opacity="1" color-rendering="auto" color-interpolation="auto" text-rendering="auto" stroke="black" stroke-linecap="square" width="408" stroke-miterlimit="10" shape-rendering="auto" stroke-opacity="1" fill="black" stroke-dasharray="none" font-weight="normal" stroke-width="1" height="535" font-family="'Dialog'" font-style="normal" stroke-linejoin="miter" font-size="12px" stroke-dashoffset="0" image-rendering="auto">
  <!--Generated by ySVG 2.5-->
  <defs id="genericDefs"/>
  <g>
    <defs id="defs1">
      <clipPath clipPathUnits="userSpaceOnUse" id="clipPath1">
        <path d="M0 0 L408 0 L408 535 L0 535 L0 0 Z"/>
      </clipPath>
      <clipPath clipPathUnits="userSpaceOnUse" id="clipPath2">
        <path d="M873 229 L1281 229 L1281 764 L873 764 L873 229 Z"/>
      </clipPath>
    </defs>
    <g fill="white" text-rendering="geometricPrecision" shape-rendering="geometricPrecision" transform="translate(-873,-229)" stroke="white">
      <rect x="873" width="408" height="535" y="229" clip-path="url(#clipPath2)" stroke="none"/>
    </g>
    <g fill="rgb(245,245,245)" text-rendering="geometricPrecision" shape-rendering="geometricPrecision" transform="matrix(1,0,0,1,-873,-229)" stroke="rgb(245,245,245)">
      <rect x="895.8" width="370" height="123.6" y="451.9" clip-path="url(#clipPath2)" stroke="none"/>
    </g>
    <g text-rendering="geometricPrecision" stroke-miterlimit="1.45" shape-rendering="geometricPrecision" transform="matrix(1,0,0,1,-873,-229)" stroke-linecap="butt">
      <rect fill="none" x="895.8" width="370" height="123.6" y="451.9" clip-path="url(#clipPath2)"/>
      <text x="1185.5764" font-size="15px" y="427.0401" clip-path="url(#clipPath2)" font-family="'Consolas'" stroke="none" xml:space="preserve">Framework</text>
      <text x="1189.7" font-size="15px" y="442.0401" clip-path="url(#clipPath2)" font-family="'Consolas'" stroke="none" xml:space="preserve">&lt;qiime2&gt;</text>
      <rect x="888.6" y="267.2" clip-path="url(#clipPath2)" fill="none" width="134.2" stroke-dasharray="6,2" rx="4" ry="4" height="248.008"/>
      <text x="894.6" font-size="15px" y="257.3401" clip-path="url(#clipPath2)" font-family="'Consolas'" stroke="none" xml:space="preserve">Interfaces</text>
      <rect x="888.6" y="655.1782" clip-path="url(#clipPath2)" fill="none" width="377.2" stroke-dasharray="6,2" rx="4" ry="4" height="93.3584"/>
      <text x="894.6" font-size="15px" y="645.3184" clip-path="url(#clipPath2)" font-family="'Consolas'" stroke="none" xml:space="preserve">Plugins</text>
    </g>
    <g fill="white" text-rendering="geometricPrecision" shape-rendering="geometricPrecision" transform="matrix(1,0,0,1,-873,-229)" stroke="white">
      <rect x="1027.3" width="107" height="44.2" y="669.5142" clip-path="url(#clipPath2)" stroke="none"/>
    </g>
    <g text-rendering="geometricPrecision" stroke-miterlimit="1.45" shape-rendering="geometricPrecision" transform="matrix(1,0,0,1,-873,-229)" stroke-linecap="butt">
      <rect fill="none" x="1027.3" width="107" height="44.2" y="669.5142" clip-path="url(#clipPath2)"/>
      <text x="1054.4094" xml:space="preserve" y="694.5264" clip-path="url(#clipPath2)" font-family="'Consolas'" stroke="none">q2-types</text>
    </g>
    <g fill="white" text-rendering="geometricPrecision" shape-rendering="geometricPrecision" transform="matrix(1,0,0,1,-873,-229)" stroke="white">
      <rect x="902.2" width="107" height="44.2" y="687.8" clip-path="url(#clipPath2)" stroke="none"/>
    </g>
    <g text-rendering="geometricPrecision" stroke-miterlimit="1.45" shape-rendering="geometricPrecision" transform="matrix(1,0,0,1,-873,-229)" stroke-linecap="butt">
      <rect fill="none" x="902.2" width="107" height="44.2" y="687.8" clip-path="url(#clipPath2)"/>
      <text x="929.3094" xml:space="preserve" y="712.8121" clip-path="url(#clipPath2)" font-family="'Consolas'" stroke="none">q2-dada2</text>
    </g>
    <g fill="white" text-rendering="geometricPrecision" shape-rendering="geometricPrecision" transform="matrix(1,0,0,1,-873,-229)" stroke="white">
      <rect x="902.2" width="107" height="44.2" y="368.8" clip-path="url(#clipPath2)" stroke="none"/>
    </g>
    <g text-rendering="geometricPrecision" stroke-miterlimit="1.45" shape-rendering="geometricPrecision" transform="matrix(1,0,0,1,-873,-229)" stroke-linecap="butt">
      <rect fill="none" x="902.2" width="107" height="44.2" y="368.8" clip-path="url(#clipPath2)"/>
      <text x="939.2059" xml:space="preserve" y="393.8121" clip-path="url(#clipPath2)" font-family="'Consolas'" stroke="none">q2cli</text>
    </g>
    <g fill="white" text-rendering="geometricPrecision" shape-rendering="geometricPrecision" transform="matrix(1,0,0,1,-873,-229)" stroke="white">
      <rect x="902.2" width="107" height="44.2" y="279.2" clip-path="url(#clipPath2)" stroke="none"/>
    </g>
    <g text-rendering="geometricPrecision" stroke-miterlimit="1.45" shape-rendering="geometricPrecision" transform="matrix(1,0,0,1,-873,-229)" stroke-linecap="butt">
      <rect fill="none" x="902.2" width="107" height="44.2" y="279.2" clip-path="url(#clipPath2)"/>
      <text x="929.3094" xml:space="preserve" y="304.2121" clip-path="url(#clipPath2)" font-family="'Consolas'" stroke="none">q2studio</text>
    </g>
    <g fill="white" text-rendering="geometricPrecision" shape-rendering="geometricPrecision" transform="matrix(1,0,0,1,-873,-229)" stroke="white">
      <rect x="1027.3" width="107" height="44.2" y="492.1" clip-path="url(#clipPath2)" stroke="none"/>
    </g>
    <g text-rendering="geometricPrecision" stroke-miterlimit="1.45" shape-rendering="geometricPrecision" transform="matrix(1,0,0,1,-873,-229)" stroke-linecap="butt">
      <rect fill="none" x="1027.3" width="107" height="44.2" y="492.1" clip-path="url(#clipPath2)"/>
      <text x="1067.6047" xml:space="preserve" y="511.1121" clip-path="url(#clipPath2)" font-family="'Consolas'" stroke="none">SDK </text>
      <text x="1041.2141" xml:space="preserve" y="523.1121" clip-path="url(#clipPath2)" font-family="'Consolas'" stroke="none">&lt;qiime2.sdk&gt;</text>
    </g>
    <g fill="white" text-rendering="geometricPrecision" shape-rendering="geometricPrecision" transform="matrix(1,0,0,1,-873,-229)" stroke="white">
      <rect x="902.2" width="107" height="44.2" y="458.4" clip-path="url(#clipPath2)" stroke="none"/>
    </g>
    <g text-rendering="geometricPrecision" stroke-miterlimit="1.45" shape-rendering="geometricPrecision" transform="matrix(1,0,0,1,-873,-229)" stroke-linecap="butt">
      <rect fill="none" x="902.2" width="107" height="44.2" y="458.4" clip-path="url(#clipPath2)"/>
      <text x="916.1141" xml:space="preserve" y="477.4121" clip-path="url(#clipPath2)" font-family="'Consolas'" stroke="none">Artifact API</text>
      <text x="902.9188" xml:space="preserve" y="489.4121" clip-path="url(#clipPath2)" font-family="'Consolas'" stroke="none">&lt;qiime2.plugins&gt;</text>
    </g>
    <g fill="white" text-rendering="geometricPrecision" shape-rendering="geometricPrecision" transform="matrix(1,0,0,1,-873,-229)" stroke="white">
      <rect x="1152.4" width="107" height="44.2" y="687.8" clip-path="url(#clipPath2)" stroke="none"/>
    </g>
    <g text-rendering="geometricPrecision" stroke-miterlimit="1.45" shape-rendering="geometricPrecision" transform="matrix(1,0,0,1,-873,-229)" stroke-linecap="butt">
      <rect fill="none" x="1152.4" width="107" height="44.2" y="687.8" clip-path="url(#clipPath2)"/>
      <text x="1153.1188" xml:space="preserve" y="712.8121" clip-path="url(#clipPath2)" font-family="'Consolas'" stroke="none">q2-feature-table</text>
    </g>
    <g fill="white" text-rendering="geometricPrecision" shape-rendering="geometricPrecision" transform="matrix(1,0,0,1,-873,-229)" stroke="white">
      <rect x="1152.4" width="107" height="44.2" y="525.8" clip-path="url(#clipPath2)" stroke="none"/>
    </g>
    <g text-rendering="geometricPrecision" stroke-miterlimit="1.45" shape-rendering="geometricPrecision" transform="matrix(1,0,0,1,-873,-229)" stroke-linecap="butt">
      <rect fill="none" x="1152.4" width="107" height="44.2" y="525.8" clip-path="url(#clipPath2)"/>
      <text x="1172.9117" xml:space="preserve" y="544.8121" clip-path="url(#clipPath2)" font-family="'Consolas'" stroke="none">Plugin API</text>
      <text x="1156.4176" xml:space="preserve" y="556.8121" clip-path="url(#clipPath2)" font-family="'Consolas'" stroke="none">&lt;qiime2.plugin&gt;</text>
    </g>
    <g fill="white" text-rendering="geometricPrecision" shape-rendering="geometricPrecision" transform="matrix(1,0,0,1,-873,-229)" stroke="white">
      <rect x="1152.4" width="107" height="44.2" y="458.4" clip-path="url(#clipPath2)" stroke="none"/>
    </g>
    <g text-rendering="geometricPrecision" stroke-miterlimit="1.45" shape-rendering="geometricPrecision" transform="matrix(1,0,0,1,-873,-229)" stroke-linecap="butt">
      <rect fill="none" x="1152.4" width="107" height="44.2" y="458.4" clip-path="url(#clipPath2)"/>
      <text x="1166.3141" xml:space="preserve" y="477.4121" clip-path="url(#clipPath2)" font-family="'Consolas'" stroke="none">Internal API</text>
      <text x="1163.0153" xml:space="preserve" y="489.4121" clip-path="url(#clipPath2)" font-family="'Consolas'" stroke="none">&lt;qiime2.core&gt;</text>
      <path fill="none" d="M1009.2 702.08 L1023.342 700.0128" clip-path="url(#clipPath2)"/>
      <path d="M1027.2999 699.4343 L1018.5162 694.6544 L1022.3525 700.1575 L1020.2518 706.5283 Z" clip-path="url(#clipPath2)" stroke="none"/>
      <path fill="none" d="M986.2109 413.0189 L1035.3868 488.7412" clip-path="url(#clipPath2)"/>
      <path d="M1037.5654 492.0959 L1038.2402 482.1187 L1034.8422 487.9026 L1028.1763 488.6544 Z" clip-path="url(#clipPath2)" stroke="none"/>
      <path fill="none" d="M999.1326 323.3729 L1071.7147 488.4325" clip-path="url(#clipPath2)"/>
      <path d="M1073.325 492.0941 L1075.5969 482.3556 L1071.3121 487.5171 L1064.6122 487.1862 Z" clip-path="url(#clipPath2)" stroke="none"/>
      <path fill="none" stroke-dasharray="8,6,0,6" d="M1080.8 536.3 L1080.8 665.0142" stroke-width="2" clip-path="url(#clipPath2)" stroke-linecap="round"/>
      <path stroke-dasharray="8,6,0,6" d="M1080.8 669.5142 L1087.55 660.5142 L1080.8 663.8892 L1074.05 660.5142 Z" stroke-width="2" clip-path="url(#clipPath2)" stroke-linecap="round" stroke="none"/>
      <path fill="none" stroke-dasharray="8,6,0,6" d="M1066.6727 536.3 L972.251 684.0085" stroke-width="2" clip-path="url(#clipPath2)" stroke-linecap="round"/>
      <path stroke-dasharray="8,6,0,6" d="M969.8273 687.8 L980.362 683.8525 L972.8569 683.0606 L968.9874 676.5814 Z" stroke-width="2" clip-path="url(#clipPath2)" stroke-linecap="round" stroke="none"/>
      <path fill="none" d="M998.745 502.6283 L1024.0684 520.6079" clip-path="url(#clipPath2)"/>
      <path d="M1027.3298 522.9236 L1024.2804 513.4 L1023.2529 520.029 L1017.3333 523.1845 Z" clip-path="url(#clipPath2)" stroke="none"/>
      <path fill="none" stroke-dasharray="8,6,0,6" d="M1094.9272 536.3 L1189.349 684.0085" stroke-width="2" clip-path="url(#clipPath2)" stroke-linecap="round"/>
      <path stroke-dasharray="8,6,0,6" d="M1191.7727 687.8 L1192.6125 676.5814 L1188.743 683.0606 L1181.238 683.8525 Z" stroke-width="2" clip-path="url(#clipPath2)" stroke-linecap="round" stroke="none"/>
      <path fill="none" d="M1152.4 702.08 L1138.2579 700.0128" clip-path="url(#clipPath2)"/>
      <path d="M1134.3 699.4343 L1141.3481 706.5283 L1139.2474 700.1575 L1143.0837 694.6545 Z" clip-path="url(#clipPath2)" stroke="none"/>
      <path fill="none" d="M1100.0376 669.5142 L1184.0361 573.017" clip-path="url(#clipPath2)"/>
      <path d="M1186.6625 570 L1176.8843 572.0945 L1183.3795 573.7712 L1185.9353 579.9735 Z" clip-path="url(#clipPath2)" stroke="none"/>
      <path fill="none" d="M1205.9 687.8 L1205.9 574" clip-path="url(#clipPath2)"/>
      <path d="M1205.9 570 L1199.9 578 L1205.9 575 L1211.9 578 Z" clip-path="url(#clipPath2)" stroke="none"/>
      <path fill="none" d="M989.8322 687.8 L1168.4102 572.174" clip-path="url(#clipPath2)"/>
      <path d="M1171.7678 570 L1161.7915 569.3115 L1167.5708 572.7175 L1168.3135 579.3845 Z" clip-path="url(#clipPath2)" stroke="none"/>
      <path fill="none" d="M1152.4 533.4879 L1138.1624 529.6525" clip-path="url(#clipPath2)"/>
      <path d="M1134.3 528.6121 L1140.464 536.4865 L1139.1279 529.9127 L1143.5853 524.8995 Z" clip-path="url(#clipPath2)" stroke="none"/>
      <path fill="none" d="M1134.3 499.7879 L1148.5377 495.9525" clip-path="url(#clipPath2)"/>
      <path d="M1152.4 494.9121 L1143.1147 491.1995 L1147.5721 496.2126 L1146.2361 502.7864 Z" clip-path="url(#clipPath2)" stroke="none"/>
      <path fill="none" d="M1205.9 525.8 L1205.9 506.6" clip-path="url(#clipPath2)"/>
      <path d="M1205.9 502.6 L1199.9 510.6 L1205.9 507.6 L1211.9 510.6 Z" clip-path="url(#clipPath2)" stroke="none"/>
    </g>
  </g>
</svg>
