<svg xmlns="http://www.w3.org/2000/svg" xmlns:xlink="http://www.w3.org/1999/xlink" xmlns:lucid="lucid" width="761.73" height="1685.76"><g transform="translate(0 0)" lucid:page-tab-id="0_0"><path d="M0 0h761.73v1685.76H0z" fill="#fff"/><path d="M489.23 46a6 6 0 0 1 6-6H687.5a6 6 0 0 1 6 6v203a6 6 0 0 1-6 6H495.23a6 6 0 0 1-6-6z" stroke="#5e5e5e" fill="#fff"/><path d="M197.73 975.57a6 6 0 0 1 6-6h330.9a6 6 0 0 1 6 6v265.5a6 6 0 0 1-6 6h-330.9a6 6 0 0 1-6-6z" fill-opacity="0"/><path d="M219.04 969.57h6.13m12.26 0h6.13m12.25 0h6.14m12.26 0h6.12m12.26 0h6.13m12.26 0h6.13m12.25 0h6.12m12.26 0h6.13m12.25 0h6.14m12.26 0h6.12m12.26 0H409m12.26 0h6.13m12.25 0h6.13m12.25 0h6.13m12.25 0h6.14m12.26 0h6.13m12.25 0h6.13m12.26 0h3.07l.94.07.9.22.88.36.8.5.72.6.6.72.5.8.36.88.22.9.08.95v2.95m0 11.8v5.9m0 11.8v5.9m0 11.8v5.9m0 11.8v5.9m0 11.8v5.9m0 11.8v5.9m0 11.8v5.9m0 11.8v5.9m0 11.8v5.9m0 11.8v5.9m0 11.8v5.9m0 11.8v5.9m0 11.8v5.9m0 11.8v5.9m0 11.8v2.95l-.08.94-.22.92-.36.87-.5.8-.6.7-.72.62-.8.5-.87.36-.9.22-.95.07h-3.07m-12.25 0h-6.12m-12.25 0h-6.13m-12.26 0h-6.13m-12.24 0h-6.13m-12.25 0h-6.13m-12.26 0h-6.14m-12.25 0h-6.12m-12.26 0h-6.12m-12.26 0h-6.13m-12.24 0h-6.13m-12.26 0h-6.12m-12.26 0h-6.14m-12.25 0h-6.12m-12.26 0h-6.12m-12.26 0h-6.13m-12.24 0h-6.13m-12.26 0h-6.13m-12.25 0h-3.07l-.94-.07-.93-.22-.87-.36-.8-.5-.72-.6-.6-.72-.5-.8-.36-.88-.22-.9-.07-.95v-2.95m0-11.8v-5.9m0-11.8v-5.9m0-11.8v-5.9m0-11.8v-5.9m0-11.8v-5.9m0-11.8v-5.9m0-11.8v-5.9m0-11.8v-5.9m0-11.8v-5.9m0-11.8v-5.9m0-11.8v-5.9m0-11.8v-5.9m0-11.8v-5.9m0-11.8v-5.9m0-11.8v-2.95l.07-.94.22-.9.36-.88.5-.8.6-.72.72-.6.8-.5.87-.37.92-.22.93-.07h3.06" stroke="#5e5e5e" stroke-width="3" fill="none"/><use xlink:href="#a" transform="matrix(1,0,0,1,197.7255936675461,969.5697373015478) translate(9.878697916666718 22.961171874999998)"/><use xlink:href="#b" transform="matrix(1,0,0,1,197.7255936675461,969.5697373015478) translate(117.62956597222225 22.961171874999998)"/><use xlink:href="#c" transform="matrix(1,0,0,1,197.7255936675461,969.5697373015478) translate(279.25586805555554 22.961171874999998)"/><path d="M199.23 326a6 6 0 0 1 6-6h328a6 6 0 0 1 6 6v186a6 6 0 0 1-6 6h-328a6 6 0 0 1-6-6z" fill-opacity="0"/><path d="M220.4 320h6.1m12.13 0h6.08m12.16 0h6.07m12.15 0h6.07m12.15 0h6.07m12.15 0h6.08m12.14 0h6.08m12.15 0h6.07m12.15 0h6.06m12.15 0h6.1m12.13 0h6.08m12.16 0h6.07m12.15 0h6.07m12.15 0h6.07m12.15 0h6.08m12.14 0h6.08m12.15 0h6.07m12.15 0h3.03l.93.07.92.22.87.35.8.5.72.6.6.72.5.8.36.88.22.9.08.95v3.1m0 12.4v6.2m0 12.4v6.2m0 12.4v6.2m0 12.4v6.2m0 12.4v6.2m0 12.4v6.2m0 12.4v6.2m0 12.4v6.2m0 12.4v6.2m0 12.4v3.1l-.08.94-.22.9-.36.88-.5.8-.6.72-.72.6-.8.5-.87.37-.92.23-.93.07h-3.04m-12.16 0h-6.07m-12.15 0h-6.08m-12.14 0h-6.08m-12.15 0h-6.07m-12.15 0h-6.07m-12.15 0h-6.07m-12.15 0h-6.07m-12.14 0h-6.1m-12.14 0h-6.07m-12.16 0h-6.07m-12.15 0h-6.08m-12.14 0h-6.08m-12.15 0h-6.07m-12.15 0h-6.07m-12.15 0h-6.07m-12.15 0h-6.07m-12.14 0h-6.1m-12.14 0h-3.03l-.94-.07-.93-.22-.87-.35-.8-.5-.72-.6-.6-.72-.5-.8-.36-.88-.22-.9-.07-.95v-3.1m0-12.4v-6.2m0-12.4v-6.2m0-12.4v-6.2m0-12.4v-6.2m0-12.4v-6.2m0-12.4v-6.2m0-12.4v-6.2m0-12.4v-6.2m0-12.4v-6.2m0-12.4V326l.07-.94.22-.9.36-.88.5-.8.6-.72.72-.6.8-.5.87-.37.92-.23.93-.07h3.03" stroke="#5e5e5e" stroke-width="3" fill="none"/><use xlink:href="#d" transform="matrix(1,0,0,1,199.22559366754578,320) translate(8.378697916666747 22.961171874999998)"/><path d="M199.23 640.63a6 6 0 0 1 6-6h328a6 6 0 0 1 6 6v208.3a6 6 0 0 1-6 6h-328a6 6 0 0 1-6-6z" fill-opacity="0"/><path d="M220.4 634.63h6.1m12.13 0h6.08m12.16 0h6.07m12.15 0h6.07m12.15 0h6.07m12.15 0h6.08m12.14 0h6.08m12.15 0h6.07m12.15 0h6.06m12.15 0h6.1m12.13 0h6.08m12.16 0h6.07m12.15 0h6.07m12.15 0h6.07m12.15 0h6.08m12.14 0h6.08m12.15 0h6.07m12.15 0h3.03l.93.07.92.22.87.36.8.5.72.6.6.72.5.8.36.87.22.92.08.92v2.9m0 11.57v5.78m0 11.57v5.8m0 11.56v5.8m0 11.57v5.78m0 11.58v5.78m0 11.6v5.77m0 11.57v5.8m0 11.56v5.8m0 11.56v5.8m0 11.56v5.8m0 11.56v5.8m0 11.56v2.9l-.08.93-.22.9-.36.88-.5.8-.6.72-.72.6-.8.5-.87.37-.92.22-.93.07h-3.04m-12.16 0h-6.07m-12.15 0h-6.08m-12.14 0h-6.08m-12.15 0h-6.07m-12.15 0h-6.07m-12.15 0h-6.07m-12.15 0h-6.07m-12.14 0h-6.1m-12.14 0h-6.07m-12.16 0h-6.07m-12.15 0h-6.08m-12.14 0h-6.08m-12.15 0h-6.07m-12.15 0h-6.07m-12.15 0h-6.07m-12.15 0h-6.07m-12.14 0h-6.1m-12.14 0h-3.03l-.94-.07-.93-.22-.87-.36-.8-.5-.72-.6-.6-.72-.5-.8-.36-.88-.22-.9-.07-.95v-2.9m0-11.56v-5.8m0-11.56v-5.78m0-11.57v-5.8m0-11.56v-5.8m0-11.57v-5.8m0-11.56v-5.78m0-11.6v-5.77m0-11.58v-5.78m0-11.58v-5.8m0-11.56v-5.8m0-11.56v-5.8m0-11.56v-2.9l.07-.93.22-.93.36-.87.5-.8.6-.72.72-.6.8-.5.87-.36.92-.22.93-.08h3.03" stroke="#5e5e5e" stroke-width="3" fill="none"/><use xlink:href="#e" transform="matrix(1,0,0,1,199.22559366754587,634.6250000544218) translate(122.86399522569447 22.96117187499999)"/><path d="M249.18 386a6 6 0 0 1 6-6h228a6 6 0 0 1 6 6v28a6 6 0 0 1-6 6h-228a6 6 0 0 1-6-6z" stroke="#5e5e5e" stroke-width="3" fill="#fff"/><use xlink:href="#f" transform="matrix(1,0,0,1,261.1767810026382,392) translate(6.709876543209873 17.77777777777778)"/><use xlink:href="#g" transform="matrix(1,0,0,1,261.1767810026382,392) translate(59.672839506172835 17.77777777777778)"/><use xlink:href="#h" transform="matrix(1,0,0,1,261.1767810026382,392) translate(126.33950617283949 17.77777777777778)"/><path d="M249.23 466a6 6 0 0 1 6-6h228a6 6 0 0 1 6 6v28a6 6 0 0 1-6 6h-228a6 6 0 0 1-6-6z" stroke="#5e5e5e" stroke-width="3" fill="#fff"/><use xlink:href="#i" transform="matrix(1,0,0,1,261.2255936675464,471.99999999999994) translate(21.611111111111114 17.77777777777778)"/><use xlink:href="#j" transform="matrix(1,0,0,1,261.2255936675464,471.99999999999994) translate(105.56172839506173 17.77777777777778)"/><use xlink:href="#k" transform="matrix(1,0,0,1,261.2255936675464,471.99999999999994) translate(147.47530864197532 17.77777777777778)"/><path d="M369.18 422.5v17.48a.02.02 0 0 0 .02.02h.02" stroke="#5e5e5e" stroke-width="2" fill="none"/><path d="M370.18 422.53h-2v-1.03h2z" stroke="#5e5e5e" stroke-width=".05" fill="#5e5e5e"/><path d="M369.23 455.26L364.6 441h9.26z" stroke="#5e5e5e" stroke-width="2" fill="#5e5e5e"/><path d="M259.23 680.93a6 6 0 0 1 6-6h203.04a6 6 0 0 1 6 6v36.5a6 6 0 0 1-6 6H265.23a6 6 0 0 1-6-6z" stroke="#5e5e5e" stroke-width="3" fill="#fff"/><use xlink:href="#l" transform="matrix(1,0,0,1,271.22559366754604,686.9302720544217) translate(18.345679012345684 19.34027777777778)"/><use xlink:href="#m" transform="matrix(1,0,0,1,271.22559366754604,686.9302720544217) translate(94.76543209876544 19.34027777777778)"/><use xlink:href="#n" transform="matrix(1,0,0,1,271.22559366754604,686.9302720544217) translate(119.4567901234568 19.34027777777778)"/><path d="M239.26 748.93a6 6 0 0 1 6-6h247.97a6 6 0 0 1 6 6v92a6 6 0 0 1-6 6H245.26a6 6 0 0 1-6-6z" stroke="#5e5e5e" stroke-width="3" fill="#fff"/><use xlink:href="#o" transform="matrix(1,0,0,1,251.26220316622712,754.9302720544216) translate(33.06172839506172 20.27777777777778)"/><use xlink:href="#p" transform="matrix(1,0,0,1,251.26220316622712,754.9302720544216) translate(115.65432098765432 20.27777777777778)"/><use xlink:href="#q" transform="matrix(1,0,0,1,251.26220316622712,754.9302720544216) translate(18.03086419753086 46.94444444444444)"/><use xlink:href="#r" transform="matrix(1,0,0,1,251.26220316622712,754.9302720544216) translate(84.69753086419752 46.94444444444444)"/><use xlink:href="#s" transform="matrix(1,0,0,1,251.26220316622712,754.9302720544216) translate(87.81481481481481 73.61111111111111)"/><path d="M254.88 1033.07a6 6 0 0 1 6-6h216.6a6 6 0 0 1 6 6v78a6 6 0 0 1-6 6h-216.6a6 6 0 0 1-6-6z" stroke="#5e5e5e" stroke-width="3" fill="#fff"/><use xlink:href="#t" transform="matrix(1,0,0,1,259.87598944591025,1032.0697373015475) translate(47.277777777777786 30.27777777777778)"/><use xlink:href="#u" transform="matrix(1,0,0,1,259.87598944591025,1032.0697373015475) translate(117.5246913580247 30.27777777777778)"/><use xlink:href="#v" transform="matrix(1,0,0,1,259.87598944591025,1032.0697373015475) translate(4.037037037037038 56.94444444444445)"/><use xlink:href="#w" transform="matrix(1,0,0,1,259.87598944591025,1032.0697373015475) translate(143.4814814814815 56.94444444444445)"/><path d="M254.88 1163.24a6 6 0 0 1 6-6h216.6a6 6 0 0 1 6 6v51.33a6 6 0 0 1-6 6h-216.6a6 6 0 0 1-6-6z" stroke="#5e5e5e" stroke-width="3" fill="#fff"/><use xlink:href="#f" transform="matrix(1,0,0,1,259.87598944591025,1162.2364039682145) translate(55.91975308641976 21.15277777777778)"/><use xlink:href="#u" transform="matrix(1,0,0,1,259.87598944591025,1162.2364039682145) translate(108.88271604938272 21.15277777777778)"/><use xlink:href="#x" transform="matrix(1,0,0,1,259.87598944591025,1162.2364039682145) translate(37.30864197530863 47.81944444444444)"/><path d="M369.18 1119.57v17.66" stroke="#5e5e5e" stroke-width="2" fill="none"/><path d="M370.18 1119.6h-2v-1.03h2z" stroke="#5e5e5e" stroke-width=".05" fill="#5e5e5e"/><path d="M369.18 1152.5l-4.64-14.27h9.27z" stroke="#5e5e5e" stroke-width="2" fill="#5e5e5e"/><path d="M168.23 46a6 6 0 0 1 6-6h248a6 6 0 0 1 6 6v108a6 6 0 0 1-6 6h-248a6 6 0 0 1-6-6z" fill-opacity="0"/><path d="M189 40h5.9m11.8 0h5.9m11.82 0h5.9m11.8 0h5.9m11.83 0h5.9m11.8 0h5.9m11.82 0h5.9M313 40h5.9m11.8 0h5.9m11.82 0h5.9m11.8 0h5.92m11.8 0h5.9m11.82 0h5.9m11.8 0h2.97l.93.07.92.22.87.35.8.5.72.6.6.72.5.8.36.88.22.9.08.95v3m0 12v6m0 12v6m0 12v6m0 12v6m0 12v6m0 12v3l-.08.94-.22.9-.36.88-.5.8-.6.72-.72.6-.8.5-.87.37-.92.23-.93.07h-2.96m-11.8 0h-5.9m-11.82 0h-5.9m-11.8 0h-5.92m-11.8 0h-5.9m-11.82 0h-5.9m-11.8 0H313m-11.82 0h-5.9m-11.82 0h-5.9m-11.8 0h-5.9m-11.83 0h-5.9m-11.8 0h-5.9m-11.82 0h-5.9m-11.8 0H189m-11.82 0h-2.95l-.94-.07-.93-.22-.87-.35-.8-.5-.72-.6-.6-.72-.5-.8-.36-.88-.22-.9-.07-.95v-3m0-12v-6m0-12v-6m0-12v-6m0-12v-6m0-12v-6m0-12v-3l.07-.94.22-.9.36-.88.5-.8.6-.72.72-.6.8-.5.87-.37.92-.23.93-.07h2.95" stroke="#5e5e5e" stroke-width="3" fill="none"/><use xlink:href="#y" transform="matrix(1,0,0,1,168.22559366754595,40) translate(8.785273437500033 22.961171874999998)"/><use xlink:href="#z" transform="matrix(1,0,0,1,168.22559366754595,40) translate(130.005 22.961171874999998)"/><path d="M185.73 86a6 6 0 0 1 6-6h211.5a6 6 0 0 1 6 6v59a6 6 0 0 1-6 6h-211.5a6 6 0 0 1-6-6z" stroke="#5e5e5e" stroke-width="3" fill="#fff"/><use xlink:href="#A" transform="matrix(1,0,0,1,197.725593667546,92) translate(44.567901234567906 17.77777777777778)"/><use xlink:href="#B" transform="matrix(1,0,0,1,197.725593667546,92) translate(114.75308641975309 17.77777777777778)"/><use xlink:href="#C" transform="matrix(1,0,0,1,197.725593667546,92) translate(19.19753086419753 44.44444444444444)"/><use xlink:href="#D" transform="matrix(1,0,0,1,197.725593667546,92) translate(109.32098765432099 44.44444444444444)"/><path d="M207 225.8a7.8 7.8 0 0 1 7.56-5.8h238.67a4.6 4.6 0 0 1 4.45 5.8l-6.24 23.4a7.8 7.8 0 0 1-7.55 5.8H205.22a4.6 4.6 0 0 1-4.46-5.8z" stroke="#5e5e5e" stroke-width="3" fill="#5e5e5e"/><use xlink:href="#E" transform="matrix(1,0,0,1,204.22559366754615,225) translate(17.480308641975306 19.34027777777778)"/><use xlink:href="#F" transform="matrix(1,0,0,1,204.22559366754615,225) translate(107.60376543209877 19.34027777777778)"/><use xlink:href="#G" transform="matrix(1,0,0,1,204.22559366754615,225) translate(180.38154320987655 19.34027777777778)"/><path d="M268.23 565.8a7.8 7.8 0 0 1 7.54-5.8h177.46a4.6 4.6 0 0 1 4.45 5.8l-7.46 27.96a7.8 7.8 0 0 1-7.54 5.8H265.23a4.6 4.6 0 0 1-4.46-5.8z" stroke="#5e5e5e" stroke-width="3" fill="#5e5e5e"/><use xlink:href="#H" transform="matrix(1,0,0,1,264.22559366754604,565) translate(19.696358024691357 19.65277777777778)"/><use xlink:href="#I" transform="matrix(1,0,0,1,264.22559366754604,565) translate(86.36302469135802 19.65277777777778)"/><path d="M40 1501a6 6 0 0 1 6-6h641.5a6 6 0 0 1 6 6v27.56a6 6 0 0 1-6 6H46a6 6 0 0 1-6-6z" fill-opacity="0"/><path d="M60.85 1495h5.94m11.87 0h5.94m11.9 0h5.93m11.88 0h5.95m11.88 0h5.94m11.88 0h5.94m11.87 0h5.94m11.9 0h5.93m11.88 0h5.94m11.88 0h5.94m11.88 0h5.94m11.88 0h5.94m11.88 0h5.94m11.88 0h5.94m11.88 0h5.94m11.88 0h5.94m11.88 0h5.94m11.88 0h5.94m11.88 0h5.94m11.88 0h5.94m11.88 0h5.94m11.88 0H441m11.88 0h5.94m11.88 0h5.94m11.88 0h5.94m11.88 0h5.94m11.88 0h5.94m11.88 0h5.93m11.9 0h5.93m11.88 0h5.95m11.88 0h5.94m11.88 0h5.94m11.87 0H637m11.9 0h5.93m11.88 0h5.95m11.88 0h2.97l.94.07.9.22.88.35.8.5.72.6.6.72.5.8.37.88.23.9.07.95v2.3m0 9.18v4.6m0 9.18v2.3l-.07.94-.22.9-.35.88-.5.8-.6.72-.72.62-.8.5-.88.35-.9.22-.95.06h-2.97m-11.88 0h-5.94m-11.87 0h-5.94m-11.9 0h-5.93m-11.88 0h-5.95m-11.88 0h-5.94m-11.88 0h-5.94m-11.87 0h-5.94m-11.9 0H542m-11.88 0h-5.95m-11.88 0h-5.93m-11.88 0h-5.94m-11.88 0h-5.94m-11.88 0h-5.94m-11.88 0h-5.94m-11.88 0h-5.94m-11.88 0h-5.94m-11.88 0h-5.94m-11.88 0h-5.94m-11.88 0h-5.94m-11.88 0h-5.94m-11.88 0h-5.94m-11.88 0h-5.94m-11.88 0h-5.94m-11.88 0h-5.94m-11.88 0h-5.94m-11.88 0h-5.94m-11.88 0h-5.94m-11.88 0h-5.93m-11.9 0h-5.93m-11.88 0h-5.95m-11.88 0h-5.94m-11.88 0h-5.94m-11.87 0H96.5m-11.9 0h-5.93m-11.88 0h-5.95m-11.88 0H46l-.94-.07-.9-.23-.88-.36-.8-.5-.72-.6-.6-.7-.5-.8-.37-.88-.23-.92-.07-.94v-2.3m0-9.18v-4.6m0-9.18v-2.3l.07-.94.22-.9.35-.88.5-.8.6-.72.72-.6.8-.5.88-.37.9-.23.95-.07h2.97" stroke="#5e5e5e" stroke-width="3" fill="none"/><use xlink:href="#J" transform="matrix(1,0,0,1,40,1495) translate(29.95666015625006 19.406484374999994)"/><path d="M83.24 1356.9a7.8 7.8 0 0 1 7.54-5.8h171.15a4.6 4.6 0 0 1 4.45 5.8l-13.76 51.62a7.8 7.8 0 0 1-7.55 5.8H73.93a4.6 4.6 0 0 1-4.46-5.8z" stroke="#5e5e5e" stroke-width="3" fill="#5e5e5e"/><use xlink:href="#K" transform="matrix(1,0,0,1,72.92678100263845,1356.1118198028068) translate(20.529691358024685 21.15277777777778)"/><use xlink:href="#L" transform="matrix(1,0,0,1,72.92678100263845,1356.1118198028068) translate(113.98648148148149 21.15277777777778)"/><use xlink:href="#M" transform="matrix(1,0,0,1,72.92678100263845,1356.1118198028068) translate(47.029691358024685 47.81944444444444)"/><path d="M437.74 1356.9a7.8 7.8 0 0 1 7.54-5.8h171.15a4.6 4.6 0 0 1 4.45 5.8l-13.76 51.62a7.8 7.8 0 0 1-7.55 5.8H428.43a4.6 4.6 0 0 1-4.46-5.8z" stroke="#5e5e5e" stroke-width="3" fill="#5e5e5e"/><use xlink:href="#N" transform="matrix(1,0,0,1,427.42678100263845,1356.1118198028068) translate(13.801296296296295 21.15277777777778)"/><use xlink:href="#L" transform="matrix(1,0,0,1,427.42678100263845,1356.1118198028068) translate(120.71487654320988 21.15277777777778)"/><use xlink:href="#O" transform="matrix(1,0,0,1,427.42678100263845,1356.1118198028068) translate(22.36919753086419 47.81944444444444)"/><path d="M268.23 902.62a7.8 7.8 0 0 1 7.54-5.8h177.46a4.6 4.6 0 0 1 4.45 5.8l-7.46 27.96a7.8 7.8 0 0 1-7.54 5.8H265.23a4.6 4.6 0 0 1-4.46-5.8z" stroke="#5e5e5e" stroke-width="3" fill="#5e5e5e"/><use xlink:href="#H" transform="matrix(1,0,0,1,264.22559366754615,901.8197373015471) translate(5.591419753086422 19.65277777777778)"/><use xlink:href="#P" transform="matrix(1,0,0,1,264.22559366754615,901.8197373015471) translate(72.25808641975308 19.65277777777778)"/><use xlink:href="#Q" transform="matrix(1,0,0,1,264.22559366754615,901.8197373015471) translate(125.22104938271605 19.65277777777778)"/><path d="M543.13 1108.32h33a6 6 0 0 1 6 6v166.72a6 6 0 0 1-6 6h-47.2a6 6 0 0 0-6 6v38.07" stroke="#5e5e5e" stroke-width="2" fill="none"/><path d="M543.15 1109.32h-1.02v-2h1.02z" stroke="#5e5e5e" stroke-width=".05" fill="#5e5e5e"/><path d="M522.92 1346.38l-4.63-14.27h9.26z" stroke="#5e5e5e" stroke-width="2" fill="#5e5e5e"/><path d="M500 86a6 6 0 0 1 6-6h168a6 6 0 0 1 6 6v27.04a6 6 0 0 1-6 6H506a6 6 0 0 1-6-6z" fill-opacity="0"/><path d="M521.56 80h6.22m12.44 0h6.22m12.45 0h6.2m12.46 0h6.22m12.44 0h6.22m12.45 0h6.2m12.46 0h6.22m12.44 0h6.22m12.45 0h3.1l.94.07.9.22.88.35.8.5.72.6.6.72.5.8.37.88.23.9.07.95v2.25m0 9.02v4.5m0 9.02v2.24l-.07.94-.22.9-.35.88-.5.8-.6.72-.72.6-.8.5-.88.37-.9.22-.95.07h-3.1m-12.46 0h-6.22m-12.44 0h-6.22m-12.45 0h-6.2m-12.46 0h-6.22m-12.44 0h-6.22m-12.45 0h-6.2m-12.46 0h-6.22m-12.44 0h-6.22m-12.45 0H506l-.94-.07-.9-.22-.88-.36-.8-.5-.72-.62-.6-.7-.5-.82-.37-.87-.23-.92-.07-.94v-2.25m0-9.03v-4.5m0-9.02V86l.07-.94.22-.9.35-.88.5-.8.6-.72.72-.6.8-.5.88-.37.9-.23.95-.07h3.1" stroke="#5e5e5e" stroke-width="3" fill="none"/><use xlink:href="#R" transform="matrix(1,0,0,1,500,80.00000000000001) translate(14.392695312500019 19.406484374999994)"/><path d="M524 144.93a7.8 7.8 0 0 1 7.54-5.8H659a4.6 4.6 0 0 1 4.45 5.8L656 172.86a7.8 7.8 0 0 1-7.54 5.8H521a4.6 4.6 0 0 1-4.45-5.8z" stroke="#5e5e5e" stroke-width="3" fill="#5e5e5e"/><use xlink:href="#S" transform="matrix(1,0,0,1,519.9999999999999,144.1342812006322) translate(50.06055555555556 19.75)"/><path d="M515 204.75a6 6 0 0 1 6-6h138a6 6 0 0 1 6 6v28.2a6 6 0 0 1-6 6H521a6 6 0 0 1-6-6z" stroke="#5e5e5e" stroke-width="3" fill="#fff"/><use xlink:href="#T" transform="matrix(1,0,0,1,526.9999999999999,210.74881516587678) translate(31.91358024691359 14.222222222222221)"/><path d="M546.75 48a6 6 0 0 1 6-6h78a6 6 0 0 1 6 6v26a6 6 0 0 1-6 6h-78a6 6 0 0 1-6-6z" stroke="#000" stroke-opacity="0" stroke-width="3" fill="#fff" fill-opacity="0"/><use xlink:href="#U" transform="matrix(1,0,0,1,551.75,47.00000000000003) translate(10.027777777777786 17.75)"/><path d="M196.73 744.78h-33a6 6 0 0 0-6 6v531.16a5.1 5.1 0 0 0 5.1 5.1 5.1 5.1 0 0 1 5.1 5.1v38.97" stroke="#5e5e5e" stroke-width="2" fill="none"/><path d="M197.73 745.78h-1.03v-2h1.03z" stroke="#5e5e5e" stroke-width=".05" fill="#5e5e5e"/><path d="M167.93 1346.38l-4.64-14.27h9.26z" stroke="#5e5e5e" stroke-width="2" fill="#5e5e5e"/><path d="M329.23 162.5V200" stroke="#5e5e5e" stroke-width="2" fill="none"/><path d="M330.23 162.53h-2v-1.03h2z" stroke="#5e5e5e" stroke-width=".05" fill="#5e5e5e"/><path d="M329.23 215.26L324.6 201h9.26z" stroke="#5e5e5e" stroke-width="2" fill="#5e5e5e"/><path d="M369.22 257.5V300" stroke="#5e5e5e" stroke-width="2" fill="none"/><path d="M370.22 257.53h-2v-1.03h2z" stroke="#5e5e5e" stroke-width=".05" fill="#5e5e5e"/><path d="M369.23 315.26L364.6 301h9.26z" stroke="#5e5e5e" stroke-width="2" fill="#5e5e5e"/><path d="M369.23 520.5V540" stroke="#5e5e5e" stroke-width="2" fill="none"/><path d="M370.23 520.53h-2v-1.03h2z" stroke="#5e5e5e" stroke-width=".05" fill="#5e5e5e"/><path d="M369.23 555.26L364.6 541h9.26z" stroke="#5e5e5e" stroke-width="2" fill="#5e5e5e"/><path d="M369.73 602.05v12.57" stroke="#5e5e5e" stroke-width="2" fill="none"/><path d="M370.73 602.08h-2v-1.03h2z" stroke="#5e5e5e" stroke-width=".05" fill="#5e5e5e"/><path d="M369.73 629.9l-4.64-14.28h9.26z" stroke="#5e5e5e" stroke-width="2" fill="#5e5e5e"/><path d="M366.75 725.93v-1" stroke="#5e5e5e" stroke-width="2" fill="none"/><path d="M367.75 725.96h-2v-1.03h2z" stroke="#5e5e5e" stroke-width=".05" fill="#5e5e5e"/><path d="M366.77 738.2l-4.66-14.27h9.28z" stroke="#5e5e5e" stroke-width="2" fill="#5e5e5e"/><path d="M369.23 857.43v19.39" stroke="#5e5e5e" stroke-width="2" fill="none"/><path d="M370.23 857.46h-2v-1.03h2z" stroke="#5e5e5e" stroke-width=".05" fill="#5e5e5e"/><path d="M369.23 892.08l-4.64-14.26h9.26z" stroke="#5e5e5e" stroke-width="2" fill="#5e5e5e"/><path d="M369.73 938.88v10.7" stroke="#5e5e5e" stroke-width="2" fill="none"/><path d="M370.73 938.9h-2v-1.02h2z" stroke="#5e5e5e" stroke-width=".05" fill="#5e5e5e"/><path d="M369.73 964.83l-4.64-14.26h9.26z" stroke="#5e5e5e" stroke-width="2" fill="#5e5e5e"/><path d="M40 1621a6 6 0 0 1 6-6h641.5a6 6 0 0 1 6 6v27.56a6 6 0 0 1-6 6H46a6 6 0 0 1-6-6z" fill-opacity="0"/><path d="M60.85 1615h5.94m11.87 0h5.94m11.9 0h5.93m11.88 0h5.95m11.88 0h5.94m11.88 0h5.94m11.87 0h5.94m11.9 0h5.93m11.88 0h5.94m11.88 0h5.94m11.88 0h5.94m11.88 0h5.94m11.88 0h5.94m11.88 0h5.94m11.88 0h5.94m11.88 0h5.94m11.88 0h5.94m11.88 0h5.94m11.88 0h5.94m11.88 0h5.94m11.88 0h5.94m11.88 0H441m11.88 0h5.94m11.88 0h5.94m11.88 0h5.94m11.88 0h5.94m11.88 0h5.94m11.88 0h5.93m11.9 0h5.93m11.88 0h5.95m11.88 0h5.94m11.88 0h5.94m11.87 0H637m11.9 0h5.93m11.88 0h5.95m11.88 0h2.97l.94.07.9.22.88.35.8.5.72.6.6.72.5.8.37.88.23.9.07.95v2.3m0 9.18v4.6m0 9.18v2.3l-.07.94-.22.9-.35.88-.5.8-.6.72-.72.62-.8.5-.88.35-.9.22-.95.06h-2.97m-11.88 0h-5.94m-11.87 0h-5.94m-11.9 0h-5.93m-11.88 0h-5.95m-11.88 0h-5.94m-11.88 0h-5.94m-11.87 0h-5.94m-11.9 0H542m-11.88 0h-5.95m-11.88 0h-5.93m-11.88 0h-5.94m-11.88 0h-5.94m-11.88 0h-5.94m-11.88 0h-5.94m-11.88 0h-5.94m-11.88 0h-5.94m-11.88 0h-5.94m-11.88 0h-5.94m-11.88 0h-5.94m-11.88 0h-5.94m-11.88 0h-5.94m-11.88 0h-5.94m-11.88 0h-5.94m-11.88 0h-5.94m-11.88 0h-5.94m-11.88 0h-5.94m-11.88 0h-5.94m-11.88 0h-5.93m-11.9 0h-5.93m-11.88 0h-5.95m-11.88 0h-5.94m-11.88 0h-5.94m-11.87 0H96.5m-11.9 0h-5.93m-11.88 0h-5.95m-11.88 0H46l-.94-.07-.9-.23-.88-.36-.8-.5-.72-.6-.6-.7-.5-.8-.37-.88-.23-.92-.07-.94v-2.3m0-9.18v-4.6m0-9.18v-2.3l.07-.94.22-.9.35-.88.5-.8.6-.72.72-.6.8-.5.88-.37.9-.23.95-.07h2.97" stroke="#5e5e5e" stroke-width="3" fill="none"/><g><use xlink:href="#V" transform="matrix(1,0,0,1,40,1615) translate(19.15490234375006 19.406484374999994)"/></g><path d="M149.26 1416.82V1449a6 6 0 0 0 6 6h223.16a6 6 0 0 1 6 6v14" stroke="#5e5e5e" stroke-width="2" fill="none"/><path d="M150.26 1416.85h-2v-1.03h2z" stroke="#5e5e5e" stroke-width=".05" fill="#5e5e5e"/><path d="M384.42 1490.26L379.8 1476h9.26z" stroke="#5e5e5e" stroke-width="2" fill="#5e5e5e"/><path d="M538.43 1416.82V1449a6 6 0 0 0 6 6h162a6 6 0 0 1 6 6v106.5a6 6 0 0 1-6 6H373.48a6 6 0 0 0-6 6v15.5" stroke="#5e5e5e" stroke-width="2" fill="none"/><path d="M539.43 1416.85h-2v-1.03h2z" stroke="#5e5e5e" stroke-width=".05" fill="#5e5e5e"/><path d="M367.48 1610.26l-4.64-14.26h9.27z" stroke="#5e5e5e" stroke-width="2" fill="#5e5e5e"/><defs><path d="M427-171c3 195 2 397 2 596H148V-846c1-83-4-168-8-236h272c10 49 14 118 15 176h4c59-114 151-197 316-197 291 0 385 259 385 560 0 243-65 433-220 521-50 28-109 42-176 42-162-2-253-78-309-191zm69-661c-91 113-92 463-1 586 46 62 145 101 225 54 96-57 118-191 119-351 0-123-18-215-53-276-46-82-128-115-220-74-25 12-48 33-70 61" id="W"/><path d="M775-193C708-75 621 20 439 20 226 20 106-93 106-306c0-251 170-341 417-346l223-4c4-143-12-264-148-264-103 0-141 58-150 153l-293-14c37-219 194-321 455-321 263 0 418 130 417 390v392c1 84 5 161 89 160 21 0 42-2 62-6v152c-57 15-108 27-180 26-145 0-202-73-217-205h-6zm-256 17c168 0 234-139 227-325-166 4-347-25-347 173 0 94 33 152 120 152" id="X"/><path d="M1109-360C1066-122 902 20 624 20c-347 0-514-209-514-555 0-353 168-567 518-567 270 0 425 136 473 361l-283 14c-16-106-75-183-196-182-75 0-130 31-165 93s-52 152-52 270c0 249 74 374 221 374 120 0 188-82 201-201" id="Y"/><path d="M864 0L575-490l-121 84V0H173v-1484h281v850l386-448h302L762-660 1171 0H864" id="Z"/><path d="M1108-33c-3 314-178 467-492 467-243 0-400-94-447-291l281-33c17 79 82 141 174 141 176 0 212-155 205-347-2-40 5-80 0-115C773-85 665-12 501-12c-288 0-377-242-377-538 0-242 65-426 223-510 50-26 108-39 175-39 160 0 253 78 307 191h5c1-58 5-125 14-174h266c-12 335-3 703-6 1049zM811-384c25-82 27-259 1-342-30-99-77-180-190-180-172 0-205 171-205 356 0 116 18 202 54 258 48 76 129 107 221 70 62-25 96-86 119-162" id="aa"/><path d="M1113-274C1038-96 884 20 626 20c-352 0-526-209-526-566 0-358 185-556 530-556 358 0 496 251 499 615H395c5 180 68 319 245 319 102 0 186-45 208-129zM857-663c-6-177-128-307-315-247-94 30-141 121-145 247h460" id="ab"/><g id="a"><use transform="matrix(0.010959201388888886,0,0,0.010959201388888886,0,0)" xlink:href="#W"/><use transform="matrix(0.010959201388888886,0,0,0.010959201388888886,13.468858506944441,0)" xlink:href="#X"/><use transform="matrix(0.010959201388888886,0,0,0.010959201388888886,26.937717013888882,0)" xlink:href="#Y"/><use transform="matrix(0.010959201388888886,0,0,0.010959201388888886,40.40657552083332,0)" xlink:href="#Z"/><use transform="matrix(0.010959201388888886,0,0,0.010959201388888886,53.875434027777764,0)" xlink:href="#X"/><use transform="matrix(0.010959201388888886,0,0,0.010959201388888886,67.3442925347222,0)" xlink:href="#aa"/><use transform="matrix(0.010959201388888886,0,0,0.010959201388888886,80.81315104166664,0)" xlink:href="#ab"/><path d="M-1.12 4.1h110v2.26h-110z"/></g><path d="M794-190h353V0H118v-190h395v-702H223v-190h571v892zM513-1277v-207h281v207H513" id="ac"/><path d="M768-1103c247 0 336 167 336 416V0H824v-619c-3-164-24-273-171-273-164 0-229 142-229 312V0H143c-4-359 9-736-8-1082h268c7 63 12 146 13 215h4c67-145 160-236 348-236" id="ad"/><path d="M711 13c-250 0-386-99-385-349l2-556H161v-190h181l88-282h176v282h385v190H606v530c-10 130 45 186 174 184 91-2 176-11 255-27v186C933-1 833 13 711 13" id="ae"/><path d="M875-1102c70 0 148 7 206 17v237c-110-17-267-37-359 15-123 69-192 207-192 395V0H250c-10-367 32-789-52-1082h271c19 69 36 149 46 228h4c52-151 151-250 356-248" id="af"/><path d="M616-1102c361 0 521 202 521 560 0 354-171 562-527 562C259 20 92-192 92-542c0-351 169-560 524-560zm-9 930c200-2 236-165 236-370 0-199-27-367-223-367-195 0-233 146-233 367 0 129 18 223 55 282s92 88 165 88" id="ag"/><g id="b"><use transform="matrix(0.010959201388888886,0,0,0.010959201388888886,0,0)" xlink:href="#ac"/><use transform="matrix(0.010959201388888886,0,0,0.010959201388888886,13.468858506944441,0)" xlink:href="#ad"/><use transform="matrix(0.010959201388888886,0,0,0.010959201388888886,26.937717013888882,0)" xlink:href="#ae"/><use transform="matrix(0.010959201388888886,0,0,0.010959201388888886,40.40657552083332,0)" xlink:href="#ab"/><use transform="matrix(0.010959201388888886,0,0,0.010959201388888886,53.875434027777764,0)" xlink:href="#aa"/><use transform="matrix(0.010959201388888886,0,0,0.010959201388888886,67.3442925347222,0)" xlink:href="#af"/><use transform="matrix(0.010959201388888886,0,0,0.010959201388888886,80.81315104166664,0)" xlink:href="#X"/><use transform="matrix(0.010959201388888886,0,0,0.010959201388888886,94.28200954861109,0)" xlink:href="#ae"/><use transform="matrix(0.010959201388888886,0,0,0.010959201388888886,107.75086805555553,0)" xlink:href="#ac"/><use transform="matrix(0.010959201388888886,0,0,0.010959201388888886,121.21972656249997,0)" xlink:href="#ag"/><use transform="matrix(0.010959201388888886,0,0,0.010959201388888886,134.6885850694444,0)" xlink:href="#ad"/><path d="M-1.12 4.1h163.87v2.26H-1.12z"/></g><g id="c"><use transform="matrix(0.010959201388888886,0,0,0.010959201388888886,0,0)" xlink:href="#af"/><use transform="matrix(0.010959201388888886,0,0,0.010959201388888886,13.468858506944441,0)" xlink:href="#ab"/><use transform="matrix(0.010959201388888886,0,0,0.010959201388888886,26.937717013888882,0)" xlink:href="#W"/><use transform="matrix(0.010959201388888886,0,0,0.010959201388888886,40.40657552083332,0)" xlink:href="#ag"/><path d="M-1.12 4.1H55v2.26H-1.12z"/></g><path d="M324-409v-244h580v244H324" id="ah"/><path d="M794-190h353V0H118v-190h395v-1104H223v-190h571v1294" id="ai"/><path d="M429-1484c1 190-1 388 0 572 54-116 155-191 317-191 300 0 386 257 386 563 0 241-73 429-226 518-49 28-106 42-169 42-162 0-251-81-306-196h-4c-1 59-5 127-15 176H140c4-67 9-153 8-236v-1248h281zm66 648c-93 114-92 466 1 585 35 45 77 79 142 79 64 0 112-31 148-92 69-115 68-440-2-561-39-68-131-111-221-70-25 11-46 32-68 59" id="aj"/><path d="M143 212c82 12 185 12 233-31 50-45 83-117 110-192L38-1082h297c100 284 211 557 291 861 72-305 176-578 270-861h294L742 57c-80 192-156 368-417 368-60 0-131-4-182-13V212" id="ak"/><g id="d"><use transform="matrix(0.010959201388888886,0,0,0.010959201388888886,0,0)" xlink:href="#X"/><use transform="matrix(0.010959201388888886,0,0,0.010959201388888886,13.468858506944441,0)" xlink:href="#Y"/><use transform="matrix(0.010959201388888886,0,0,0.010959201388888886,26.937717013888882,0)" xlink:href="#ae"/><use transform="matrix(0.010959201388888886,0,0,0.010959201388888886,40.40657552083332,0)" xlink:href="#ac"/><use transform="matrix(0.010959201388888886,0,0,0.010959201388888886,53.875434027777764,0)" xlink:href="#ag"/><use transform="matrix(0.010959201388888886,0,0,0.010959201388888886,67.3442925347222,0)" xlink:href="#ad"/><use transform="matrix(0.010959201388888886,0,0,0.010959201388888886,80.81315104166664,0)" xlink:href="#ah"/><use transform="matrix(0.010959201388888886,0,0,0.010959201388888886,94.28200954861109,0)" xlink:href="#ai"/><use transform="matrix(0.010959201388888886,0,0,0.010959201388888886,107.75086805555553,0)" xlink:href="#ac"/><use transform="matrix(0.010959201388888886,0,0,0.010959201388888886,121.21972656249997,0)" xlink:href="#aj"/><use transform="matrix(0.010959201388888886,0,0,0.010959201388888886,134.6885850694444,0)" xlink:href="#af"/><use transform="matrix(0.010959201388888886,0,0,0.010959201388888886,148.15744357638883,0)" xlink:href="#X"/><use transform="matrix(0.010959201388888886,0,0,0.010959201388888886,161.62630208333326,0)" xlink:href="#af"/><use transform="matrix(0.010959201388888886,0,0,0.010959201388888886,175.0951605902777,0)" xlink:href="#ak"/><use transform="matrix(0.010959201388888886,0,0,0.010959201388888886,188.5640190972221,0)" xlink:href="#ah"/><use transform="matrix(0.010959201388888886,0,0,0.010959201388888886,202.03287760416654,0)" xlink:href="#W"/><use transform="matrix(0.010959201388888886,0,0,0.010959201388888886,215.50173611111097,0)" xlink:href="#X"/><use transform="matrix(0.010959201388888886,0,0,0.010959201388888886,228.97059461805537,0)" xlink:href="#Y"/><use transform="matrix(0.010959201388888886,0,0,0.010959201388888886,242.43945312499983,0)" xlink:href="#Z"/><use transform="matrix(0.010959201388888886,0,0,0.010959201388888886,255.90831163194426,0)" xlink:href="#X"/><use transform="matrix(0.010959201388888886,0,0,0.010959201388888886,269.3771701388887,0)" xlink:href="#aa"/><use transform="matrix(0.010959201388888886,0,0,0.010959201388888886,282.84602864583314,0)" xlink:href="#ac"/><use transform="matrix(0.010959201388888886,0,0,0.010959201388888886,296.3148871527776,0)" xlink:href="#ad"/><use transform="matrix(0.010959201388888886,0,0,0.010959201388888886,309.78374565972206,0)" xlink:href="#aa"/><path d="M-1.12 4.1h325.5v2.26H-1.12z"/></g><g id="e"><use transform="matrix(0.010959201388888885,0,0,0.010959201388888885,0,0)" xlink:href="#ai"/><use transform="matrix(0.010959201388888885,0,0,0.010959201388888885,13.46885850694444,0)" xlink:href="#ac"/><use transform="matrix(0.010959201388888885,0,0,0.010959201388888885,26.93771701388888,0)" xlink:href="#aj"/><use transform="matrix(0.010959201388888885,0,0,0.010959201388888885,40.406575520833314,0)" xlink:href="#af"/><use transform="matrix(0.010959201388888885,0,0,0.010959201388888885,53.87543402777776,0)" xlink:href="#X"/><use transform="matrix(0.010959201388888885,0,0,0.010959201388888885,67.3442925347222,0)" xlink:href="#af"/><use transform="matrix(0.010959201388888885,0,0,0.010959201388888885,80.81315104166664,0)" xlink:href="#ak"/><path d="M-1.12 4.1H95.4v2.26H-1.1z"/></g><path fill="#333" d="M115-194c53 0 69 39 70 98 0 66-23 100-70 100C84 3 66-7 56-30L54 0H23l1-261h32v101c10-23 28-34 59-34zm-8 174c40 0 45-34 45-75 0-40-5-75-45-74-42 0-51 32-51 76 0 43 10 73 51 73" id="al"/><path fill="#333" d="M84 4C-5 8 30-112 23-190h32v120c0 31 7 50 39 49 72-2 45-101 50-169h31l1 190h-30c-1-10 1-25-2-33-11 22-28 36-60 37" id="am"/><path fill="#333" d="M24-231v-30h32v30H24zM24 0v-190h32V0H24" id="an"/><path fill="#333" d="M24 0v-261h32V0H24" id="ao"/><path fill="#333" d="M85-194c31 0 48 13 60 33l-1-100h32l1 261h-30c-2-10 0-23-3-31C134-8 116 4 85 4 32 4 16-35 15-94c0-66 23-100 70-100zm9 24c-40 0-46 34-46 75 0 40 6 74 45 74 42 0 51-32 51-76 0-42-9-74-50-73" id="ap"/><g id="f"><use transform="matrix(0.06172839506172839,0,0,0.06172839506172839,0,0)" xlink:href="#al"/><use transform="matrix(0.06172839506172839,0,0,0.06172839506172839,12.345679012345679,0)" xlink:href="#am"/><use transform="matrix(0.06172839506172839,0,0,0.06172839506172839,24.691358024691358,0)" xlink:href="#an"/><use transform="matrix(0.06172839506172839,0,0,0.06172839506172839,29.5679012345679,0)" xlink:href="#ao"/><use transform="matrix(0.06172839506172839,0,0,0.06172839506172839,34.44444444444444,0)" xlink:href="#ap"/></g><path fill="#333" d="M96-169c-40 0-48 33-48 73s9 75 48 75c24 0 41-14 43-38l32 2c-6 37-31 61-74 61-59 0-76-41-82-99-10-93 101-131 147-64 4 7 5 14 7 22l-32 3c-4-21-16-35-41-35" id="aq"/><path fill="#333" d="M100-194c62-1 85 37 85 99 1 63-27 99-86 99S16-35 15-95c0-66 28-99 85-99zM99-20c44 1 53-31 53-75 0-43-8-75-51-75s-53 32-53 75 10 74 51 75" id="ar"/><path fill="#333" d="M117-194c89-4 53 116 60 194h-32v-121c0-31-8-49-39-48C34-167 62-67 57 0H25l-1-190h30c1 10-1 24 2 32 11-22 29-35 61-36" id="as"/><path fill="#333" d="M141-36C126-15 110 5 73 4 37 3 15-17 15-53c-1-64 63-63 125-63 3-35-9-54-41-54-24 1-41 7-42 31l-33-3c5-37 33-52 76-52 45 0 72 20 72 64v82c-1 20 7 32 28 27v20c-31 9-61-2-59-35zM48-53c0 20 12 33 32 33 41-3 63-29 60-74-43 2-92-5-92 41" id="at"/><g id="g"><use transform="matrix(0.06172839506172839,0,0,0.06172839506172839,0,0)" xlink:href="#aq"/><use transform="matrix(0.06172839506172839,0,0,0.06172839506172839,11.11111111111111,0)" xlink:href="#ar"/><use transform="matrix(0.06172839506172839,0,0,0.06172839506172839,23.45679012345679,0)" xlink:href="#as"/><use transform="matrix(0.06172839506172839,0,0,0.06172839506172839,35.80246913580247,0)" xlink:href="#ap"/><use transform="matrix(0.06172839506172839,0,0,0.06172839506172839,48.148148148148145,0)" xlink:href="#at"/></g><path fill="#333" d="M115-194c55 1 70 41 70 98S169 2 115 4C84 4 66-9 55-30l1 105H24l-1-265h31l2 30c10-21 28-34 59-34zm-8 174c40 0 45-34 45-75s-6-73-45-74c-42 0-51 32-51 76 0 43 10 73 51 73" id="au"/><path fill="#333" d="M143 0L79-87 56-68V0H24v-261h32v163l83-92h37l-77 82L181 0h-38" id="av"/><path fill="#333" d="M177-190C167-65 218 103 67 71c-23-6-38-20-44-43l32-5c15 47 100 32 89-28v-30C133-14 115 1 83 1 29 1 15-40 15-95c0-56 16-97 71-98 29-1 48 16 59 35 1-10 0-23 2-32h30zM94-22c36 0 50-32 50-73 0-42-14-75-50-75-39 0-46 34-46 75s6 73 46 73" id="aw"/><path fill="#333" d="M100-194c63 0 86 42 84 106H49c0 40 14 67 53 68 26 1 43-12 49-29l28 8c-11 28-37 45-77 45C44 4 14-33 15-96c1-61 26-98 85-98zm52 81c6-60-76-77-97-28-3 7-6 17-6 28h103" id="ax"/><g id="h"><use transform="matrix(0.06172839506172839,0,0,0.06172839506172839,0,0)" xlink:href="#au"/><use transform="matrix(0.06172839506172839,0,0,0.06172839506172839,12.345679012345679,0)" xlink:href="#at"/><use transform="matrix(0.06172839506172839,0,0,0.06172839506172839,24.691358024691358,0)" xlink:href="#aq"/><use transform="matrix(0.06172839506172839,0,0,0.06172839506172839,35.80246913580247,0)" xlink:href="#av"/><use transform="matrix(0.06172839506172839,0,0,0.06172839506172839,46.91358024691358,0)" xlink:href="#at"/><use transform="matrix(0.06172839506172839,0,0,0.06172839506172839,59.25925925925926,0)" xlink:href="#aw"/><use transform="matrix(0.06172839506172839,0,0,0.06172839506172839,71.60493827160494,0)" xlink:href="#ax"/></g><path fill="#333" d="M141 0L90-78 38 0H4l68-98-65-92h35l48 74 47-74h35l-64 92 68 98h-35" id="ay"/><path fill="#333" d="M59-47c-2 24 18 29 38 22v24C64 9 27 4 27-40v-127H5v-23h24l9-43h21v43h35v23H59v120" id="az"/><g id="i"><use transform="matrix(0.06172839506172839,0,0,0.06172839506172839,0,0)" xlink:href="#ax"/><use transform="matrix(0.06172839506172839,0,0,0.06172839506172839,12.345679012345679,0)" xlink:href="#ay"/><use transform="matrix(0.06172839506172839,0,0,0.06172839506172839,23.45679012345679,0)" xlink:href="#ax"/><use transform="matrix(0.06172839506172839,0,0,0.06172839506172839,35.80246913580247,0)" xlink:href="#aq"/><use transform="matrix(0.06172839506172839,0,0,0.06172839506172839,46.91358024691358,0)" xlink:href="#am"/><use transform="matrix(0.06172839506172839,0,0,0.06172839506172839,59.25925925925926,0)" xlink:href="#az"/><use transform="matrix(0.06172839506172839,0,0,0.06172839506172839,65.4320987654321,0)" xlink:href="#ax"/></g><g id="j"><use transform="matrix(0.06172839506172839,0,0,0.06172839506172839,0,0)" xlink:href="#am"/><use transform="matrix(0.06172839506172839,0,0,0.06172839506172839,12.345679012345679,0)" xlink:href="#as"/><use transform="matrix(0.06172839506172839,0,0,0.06172839506172839,24.691358024691358,0)" xlink:href="#an"/><use transform="matrix(0.06172839506172839,0,0,0.06172839506172839,29.5679012345679,0)" xlink:href="#az"/></g><path fill="#333" d="M135-143c-3-34-86-38-87 0 15 53 115 12 119 90S17 21 10-45l28-5c4 36 97 45 98 0-10-56-113-15-118-90-4-57 82-63 122-42 12 7 21 19 24 35" id="aA"/><g id="k"><use transform="matrix(0.06172839506172839,0,0,0.06172839506172839,0,0)" xlink:href="#az"/><use transform="matrix(0.06172839506172839,0,0,0.06172839506172839,6.172839506172839,0)" xlink:href="#ax"/><use transform="matrix(0.06172839506172839,0,0,0.06172839506172839,18.51851851851852,0)" xlink:href="#aA"/><use transform="matrix(0.06172839506172839,0,0,0.06172839506172839,29.62962962962963,0)" xlink:href="#az"/><use transform="matrix(0.06172839506172839,0,0,0.06172839506172839,35.80246913580247,0)" xlink:href="#aA"/></g><path fill="#333" d="M106-169C34-169 62-67 57 0H25v-261h32l-1 103c12-21 28-36 61-36 89 0 53 116 60 194h-32v-121c2-32-8-49-39-48" id="aB"/><g id="l"><use transform="matrix(0.06172839506172839,0,0,0.06172839506172839,0,0)" xlink:href="#au"/><use transform="matrix(0.06172839506172839,0,0,0.06172839506172839,12.345679012345679,0)" xlink:href="#am"/><use transform="matrix(0.06172839506172839,0,0,0.06172839506172839,24.691358024691358,0)" xlink:href="#al"/><use transform="matrix(0.06172839506172839,0,0,0.06172839506172839,37.03703703703704,0)" xlink:href="#ao"/><use transform="matrix(0.06172839506172839,0,0,0.06172839506172839,41.91358024691358,0)" xlink:href="#an"/><use transform="matrix(0.06172839506172839,0,0,0.06172839506172839,46.79012345679013,0)" xlink:href="#aA"/><use transform="matrix(0.06172839506172839,0,0,0.06172839506172839,57.90123456790124,0)" xlink:href="#aB"/></g><g id="m"><use transform="matrix(0.06172839506172839,0,0,0.06172839506172839,0,0)" xlink:href="#az"/><use transform="matrix(0.06172839506172839,0,0,0.06172839506172839,6.172839506172839,0)" xlink:href="#ar"/></g><path fill="#333" d="M114-163C36-179 61-72 57 0H25l-1-190h30c1 12-1 29 2 39 6-27 23-49 58-41v29" id="aC"/><g id="n"><use transform="matrix(0.06172839506172839,0,0,0.06172839506172839,0,0)" xlink:href="#ap"/><use transform="matrix(0.06172839506172839,0,0,0.06172839506172839,12.345679012345679,0)" xlink:href="#an"/><use transform="matrix(0.06172839506172839,0,0,0.06172839506172839,17.22222222222222,0)" xlink:href="#aA"/><use transform="matrix(0.06172839506172839,0,0,0.06172839506172839,28.333333333333332,0)" xlink:href="#az"/><use transform="matrix(0.06172839506172839,0,0,0.06172839506172839,34.50617283950617,0)" xlink:href="#aC"/><use transform="matrix(0.06172839506172839,0,0,0.06172839506172839,41.85185185185185,0)" xlink:href="#ar"/></g><g id="o"><use transform="matrix(0.06172839506172839,0,0,0.06172839506172839,0,0)" xlink:href="#au"/><use transform="matrix(0.06172839506172839,0,0,0.06172839506172839,12.345679012345679,0)" xlink:href="#aC"/><use transform="matrix(0.06172839506172839,0,0,0.06172839506172839,19.691358024691358,0)" xlink:href="#ax"/><use transform="matrix(0.06172839506172839,0,0,0.06172839506172839,32.03703703703704,0)" xlink:href="#au"/><use transform="matrix(0.06172839506172839,0,0,0.06172839506172839,44.382716049382715,0)" xlink:href="#at"/><use transform="matrix(0.06172839506172839,0,0,0.06172839506172839,56.72839506172839,0)" xlink:href="#aC"/><use transform="matrix(0.06172839506172839,0,0,0.06172839506172839,64.07407407407408,0)" xlink:href="#ax"/></g><path fill="#333" d="M109-170H84l-4-78h32zm-65 0H19l-4-78h33" id="aD"/><g id="p"><use transform="matrix(0.06172839506172839,0,0,0.06172839506172839,0,0)" xlink:href="#aD"/><use transform="matrix(0.06172839506172839,0,0,0.06172839506172839,7.8395061728395055,0)" xlink:href="#au"/><use transform="matrix(0.06172839506172839,0,0,0.06172839506172839,20.185185185185183,0)" xlink:href="#at"/><use transform="matrix(0.06172839506172839,0,0,0.06172839506172839,32.53086419753086,0)" xlink:href="#aA"/><use transform="matrix(0.06172839506172839,0,0,0.06172839506172839,43.641975308641975,0)" xlink:href="#aA"/><use transform="matrix(0.06172839506172839,0,0,0.06172839506172839,54.75308641975309,0)" xlink:href="#ax"/><use transform="matrix(0.06172839506172839,0,0,0.06172839506172839,67.09876543209877,0)" xlink:href="#ap"/><use transform="matrix(0.06172839506172839,0,0,0.06172839506172839,79.44444444444446,0)" xlink:href="#aD"/></g><g id="q"><use transform="matrix(0.06172839506172839,0,0,0.06172839506172839,0,0)" xlink:href="#aq"/><use transform="matrix(0.06172839506172839,0,0,0.06172839506172839,11.11111111111111,0)" xlink:href="#ar"/><use transform="matrix(0.06172839506172839,0,0,0.06172839506172839,23.45679012345679,0)" xlink:href="#as"/><use transform="matrix(0.06172839506172839,0,0,0.06172839506172839,35.80246913580247,0)" xlink:href="#ap"/><use transform="matrix(0.06172839506172839,0,0,0.06172839506172839,48.148148148148145,0)" xlink:href="#at"/></g><path fill="#333" d="M210-169c-67 3-38 105-44 169h-31v-121c0-29-5-50-35-48C34-165 62-65 56 0H25l-1-190h30c1 10-1 24 2 32 10-44 99-50 107 0 11-21 27-35 58-36 85-2 47 119 55 194h-31v-121c0-29-5-49-35-48" id="aE"/><g id="r"><use transform="matrix(0.06172839506172839,0,0,0.06172839506172839,0,0)" xlink:href="#aE"/><use transform="matrix(0.06172839506172839,0,0,0.06172839506172839,18.456790123456788,0)" xlink:href="#ax"/><use transform="matrix(0.06172839506172839,0,0,0.06172839506172839,30.80246913580247,0)" xlink:href="#az"/><use transform="matrix(0.06172839506172839,0,0,0.06172839506172839,36.97530864197531,0)" xlink:href="#at"/><use transform="matrix(0.06172839506172839,0,0,0.06172839506172839,49.32098765432099,0)" xlink:href="#au"/><use transform="matrix(0.06172839506172839,0,0,0.06172839506172839,61.666666666666664,0)" xlink:href="#at"/><use transform="matrix(0.06172839506172839,0,0,0.06172839506172839,74.01234567901234,0)" xlink:href="#aq"/><use transform="matrix(0.06172839506172839,0,0,0.06172839506172839,85.12345679012346,0)" xlink:href="#av"/><use transform="matrix(0.06172839506172839,0,0,0.06172839506172839,96.23456790123457,0)" xlink:href="#at"/><use transform="matrix(0.06172839506172839,0,0,0.06172839506172839,108.58024691358025,0)" xlink:href="#aw"/><use transform="matrix(0.06172839506172839,0,0,0.06172839506172839,120.92592592592594,0)" xlink:href="#ax"/></g><g id="s"><use transform="matrix(0.06172839506172839,0,0,0.06172839506172839,0,0)" xlink:href="#aC"/><use transform="matrix(0.06172839506172839,0,0,0.06172839506172839,7.345679012345679,0)" xlink:href="#ax"/><use transform="matrix(0.06172839506172839,0,0,0.06172839506172839,19.691358024691358,0)" xlink:href="#aq"/><use transform="matrix(0.06172839506172839,0,0,0.06172839506172839,30.80246913580247,0)" xlink:href="#an"/><use transform="matrix(0.06172839506172839,0,0,0.06172839506172839,35.67901234567901,0)" xlink:href="#au"/><use transform="matrix(0.06172839506172839,0,0,0.06172839506172839,48.02469135802469,0)" xlink:href="#ax"/></g><g id="t"><use transform="matrix(0.06172839506172839,0,0,0.06172839506172839,0,0)" xlink:href="#aC"/><use transform="matrix(0.06172839506172839,0,0,0.06172839506172839,7.345679012345679,0)" xlink:href="#ax"/><use transform="matrix(0.06172839506172839,0,0,0.06172839506172839,19.691358024691358,0)" xlink:href="#as"/><use transform="matrix(0.06172839506172839,0,0,0.06172839506172839,32.03703703703704,0)" xlink:href="#ap"/><use transform="matrix(0.06172839506172839,0,0,0.06172839506172839,44.382716049382715,0)" xlink:href="#ax"/><use transform="matrix(0.06172839506172839,0,0,0.06172839506172839,56.72839506172839,0)" xlink:href="#aC"/></g><g id="u"><use transform="matrix(0.06172839506172839,0,0,0.06172839506172839,0,0)" xlink:href="#ap"/><use transform="matrix(0.06172839506172839,0,0,0.06172839506172839,12.345679012345679,0)" xlink:href="#an"/><use transform="matrix(0.06172839506172839,0,0,0.06172839506172839,17.22222222222222,0)" xlink:href="#aA"/><use transform="matrix(0.06172839506172839,0,0,0.06172839506172839,28.333333333333332,0)" xlink:href="#az"/><use transform="matrix(0.06172839506172839,0,0,0.06172839506172839,34.50617283950617,0)" xlink:href="#aC"/><use transform="matrix(0.06172839506172839,0,0,0.06172839506172839,41.85185185185185,0)" xlink:href="#ar"/></g><g id="v"><use transform="matrix(0.06172839506172839,0,0,0.06172839506172839,0,0)" xlink:href="#aE"/><use transform="matrix(0.06172839506172839,0,0,0.06172839506172839,18.456790123456788,0)" xlink:href="#ax"/><use transform="matrix(0.06172839506172839,0,0,0.06172839506172839,30.80246913580247,0)" xlink:href="#az"/><use transform="matrix(0.06172839506172839,0,0,0.06172839506172839,36.97530864197531,0)" xlink:href="#at"/><use transform="matrix(0.06172839506172839,0,0,0.06172839506172839,49.32098765432099,0)" xlink:href="#au"/><use transform="matrix(0.06172839506172839,0,0,0.06172839506172839,61.666666666666664,0)" xlink:href="#at"/><use transform="matrix(0.06172839506172839,0,0,0.06172839506172839,74.01234567901234,0)" xlink:href="#aq"/><use transform="matrix(0.06172839506172839,0,0,0.06172839506172839,85.12345679012346,0)" xlink:href="#av"/><use transform="matrix(0.06172839506172839,0,0,0.06172839506172839,96.23456790123457,0)" xlink:href="#at"/><use transform="matrix(0.06172839506172839,0,0,0.06172839506172839,108.58024691358025,0)" xlink:href="#aw"/><use transform="matrix(0.06172839506172839,0,0,0.06172839506172839,120.92592592592594,0)" xlink:href="#ax"/></g><g id="w"><use transform="matrix(0.06172839506172839,0,0,0.06172839506172839,0,0)" xlink:href="#aC"/><use transform="matrix(0.06172839506172839,0,0,0.06172839506172839,7.345679012345679,0)" xlink:href="#ax"/><use transform="matrix(0.06172839506172839,0,0,0.06172839506172839,19.691358024691358,0)" xlink:href="#aq"/><use transform="matrix(0.06172839506172839,0,0,0.06172839506172839,30.80246913580247,0)" xlink:href="#an"/><use transform="matrix(0.06172839506172839,0,0,0.06172839506172839,35.67901234567901,0)" xlink:href="#au"/><use transform="matrix(0.06172839506172839,0,0,0.06172839506172839,48.02469135802469,0)" xlink:href="#ax"/><use transform="matrix(0.06172839506172839,0,0,0.06172839506172839,60.37037037037037,0)" xlink:href="#aA"/></g><g id="x"><use transform="matrix(0.06172839506172839,0,0,0.06172839506172839,0,0)" xlink:href="#aE"/><use transform="matrix(0.06172839506172839,0,0,0.06172839506172839,18.456790123456788,0)" xlink:href="#ax"/><use transform="matrix(0.06172839506172839,0,0,0.06172839506172839,30.80246913580247,0)" xlink:href="#az"/><use transform="matrix(0.06172839506172839,0,0,0.06172839506172839,36.97530864197531,0)" xlink:href="#at"/><use transform="matrix(0.06172839506172839,0,0,0.06172839506172839,49.32098765432099,0)" xlink:href="#au"/><use transform="matrix(0.06172839506172839,0,0,0.06172839506172839,61.666666666666664,0)" xlink:href="#at"/><use transform="matrix(0.06172839506172839,0,0,0.06172839506172839,74.01234567901234,0)" xlink:href="#aq"/><use transform="matrix(0.06172839506172839,0,0,0.06172839506172839,85.12345679012346,0)" xlink:href="#av"/><use transform="matrix(0.06172839506172839,0,0,0.06172839506172839,96.23456790123457,0)" xlink:href="#at"/><use transform="matrix(0.06172839506172839,0,0,0.06172839506172839,108.58024691358025,0)" xlink:href="#aw"/><use transform="matrix(0.06172839506172839,0,0,0.06172839506172839,120.92592592592594,0)" xlink:href="#ax"/><use transform="matrix(0.06172839506172839,0,0,0.06172839506172839,133.27160493827162,0)" xlink:href="#aA"/></g><path d="M800 425c-1-198 1-404 0-596C746-55 645 20 483 20 183 20 97-237 97-543c0-242 74-429 227-518 49-28 105-42 168-42 163 0 248 85 306 197h4c1-59 6-126 15-176h272c-4 67-9 153-8 236V425H800zm-66-671c93-114 91-467-2-586-35-45-76-79-141-79-64 0-113 31-149 92-69 115-66 440 4 561 39 68 130 111 220 70 25-11 46-31 68-58" id="aF"/><path d="M135-968c34-256 187-402 480-402 217 0 371 75 441 220 45 93 40 219-8 308-114 212-348 323-508 488-38 39-66 80-85 123h654V0H123v-195c112-245 321-399 515-560 57-48 107-96 142-157 14-26 22-53 22-80-1-104-73-156-185-154-131 2-181 74-199 194" id="aG"/><path d="M802-909c-3-189-2-383-2-575h281v1248c-1 83 4 168 8 236H817c-9-50-14-117-15-176h-4C735-49 651 20 482 20 191 20 97-238 97-539c0-243 66-432 221-519 50-28 108-42 175-42 162 2 253 78 309 191zm-70 658c91-113 93-462 2-584-46-61-145-100-224-53-96 56-119 190-120 349 0 123 17 214 52 275 46 82 130 115 222 74 25-12 46-33 68-61" id="aH"/><g id="y"><use transform="matrix(0.010959201388888886,0,0,0.010959201388888886,0,0)" xlink:href="#aF"/><use transform="matrix(0.010959201388888886,0,0,0.010959201388888886,13.468858506944441,0)" xlink:href="#aG"/><use transform="matrix(0.010959201388888886,0,0,0.010959201388888886,26.937717013888882,0)" xlink:href="#ah"/><use transform="matrix(0.010959201388888886,0,0,0.010959201388888886,40.40657552083332,0)" xlink:href="#aH"/><use transform="matrix(0.010959201388888886,0,0,0.010959201388888886,53.875434027777764,0)" xlink:href="#X"/><use transform="matrix(0.010959201388888886,0,0,0.010959201388888886,67.3442925347222,0)" xlink:href="#aH"/><use transform="matrix(0.010959201388888886,0,0,0.010959201388888886,80.81315104166664,0)" xlink:href="#X"/><use transform="matrix(0.010959201388888886,0,0,0.010959201388888886,94.28200954861109,0)" xlink:href="#aG"/><path d="M-1.12 4.1h123.46v2.26H-1.12z"/></g><path d="M621-530c0 421 127 700 301 955H641C466 173 344-110 344-531s122-702 297-953h281c-174 254-301 534-301 954" id="aI"/><path d="M874 0L612-392 348 0H49l406-559-387-523h303l241 354 240-354h305L770-562 1179 0H874" id="aJ"/><path d="M934-1102c199 0 220 177 220 381V0H926c-2-260 10-533-4-785-4-72-14-138-83-138-34 0-61 27-81 81s-29 134-29 241V0H501c-2-260 9-533-5-785-4-72-13-138-82-138-46 0-65 47-80 93-21 67-30 155-30 248V0H75c-3-360 6-732-6-1082h209c6 50 3 123 8 175 36-100 83-195 216-195 135 0 166 79 196 196 42-105 93-196 236-196" id="aK"/><path d="M885-531c0 421-122 704-297 956H307c174-255 301-534 301-955 0-420-127-700-301-954h281c175 251 297 532 297 953" id="aL"/><g id="z"><use transform="matrix(0.010959201388888886,0,0,0.010959201388888886,0,0)" xlink:href="#aI"/><use transform="matrix(0.010959201388888886,0,0,0.010959201388888886,13.468858506944441,0)" xlink:href="#ab"/><use transform="matrix(0.010959201388888886,0,0,0.010959201388888886,26.937717013888882,0)" xlink:href="#aJ"/><use transform="matrix(0.010959201388888886,0,0,0.010959201388888886,40.40657552083332,0)" xlink:href="#X"/><use transform="matrix(0.010959201388888886,0,0,0.010959201388888886,53.875434027777764,0)" xlink:href="#aK"/><use transform="matrix(0.010959201388888886,0,0,0.010959201388888886,67.3442925347222,0)" xlink:href="#W"/><use transform="matrix(0.010959201388888886,0,0,0.010959201388888886,80.81315104166664,0)" xlink:href="#ai"/><use transform="matrix(0.010959201388888886,0,0,0.010959201388888886,94.28200954861109,0)" xlink:href="#ab"/><use transform="matrix(0.010959201388888886,0,0,0.010959201388888886,107.75086805555553,0)" xlink:href="#aL"/><path d="M-1.12 4.1h123.46v2.26H-1.12z"/></g><g id="A"><use transform="matrix(0.06172839506172839,0,0,0.06172839506172839,0,0)" xlink:href="#an"/><use transform="matrix(0.06172839506172839,0,0,0.06172839506172839,4.876543209876543,0)" xlink:href="#as"/><use transform="matrix(0.06172839506172839,0,0,0.06172839506172839,17.22222222222222,0)" xlink:href="#an"/><use transform="matrix(0.06172839506172839,0,0,0.06172839506172839,22.098765432098766,0)" xlink:href="#az"/><use transform="matrix(0.06172839506172839,0,0,0.06172839506172839,28.271604938271604,0)" xlink:href="#an"/><use transform="matrix(0.06172839506172839,0,0,0.06172839506172839,33.148148148148145,0)" xlink:href="#at"/><use transform="matrix(0.06172839506172839,0,0,0.06172839506172839,45.49382716049382,0)" xlink:href="#az"/><use transform="matrix(0.06172839506172839,0,0,0.06172839506172839,51.666666666666664,0)" xlink:href="#ax"/></g><path fill="#333" d="M206 0h-36l-40-164L89 0H53L-1-190h32L70-26l43-164h34l41 164 42-164h31" id="aM"/><g id="B"><use transform="matrix(0.06172839506172839,0,0,0.06172839506172839,0,0)" xlink:href="#as"/><use transform="matrix(0.06172839506172839,0,0,0.06172839506172839,12.345679012345679,0)" xlink:href="#ax"/><use transform="matrix(0.06172839506172839,0,0,0.06172839506172839,24.691358024691358,0)" xlink:href="#aM"/></g><g id="C"><use transform="matrix(0.06172839506172839,0,0,0.06172839506172839,0,0)" xlink:href="#au"/><use transform="matrix(0.06172839506172839,0,0,0.06172839506172839,12.345679012345679,0)" xlink:href="#at"/><use transform="matrix(0.06172839506172839,0,0,0.06172839506172839,24.691358024691358,0)" xlink:href="#aq"/><use transform="matrix(0.06172839506172839,0,0,0.06172839506172839,35.80246913580247,0)" xlink:href="#av"/><use transform="matrix(0.06172839506172839,0,0,0.06172839506172839,46.91358024691358,0)" xlink:href="#at"/><use transform="matrix(0.06172839506172839,0,0,0.06172839506172839,59.25925925925926,0)" xlink:href="#aw"/><use transform="matrix(0.06172839506172839,0,0,0.06172839506172839,71.60493827160494,0)" xlink:href="#ax"/></g><path fill="#333" d="M108 0H70L1-190h34L89-25l56-165h34" id="aN"/><g id="D"><use transform="matrix(0.06172839506172839,0,0,0.06172839506172839,0,0)" xlink:href="#aN"/><use transform="matrix(0.06172839506172839,0,0,0.06172839506172839,11.11111111111111,0)" xlink:href="#ax"/><use transform="matrix(0.06172839506172839,0,0,0.06172839506172839,23.45679012345679,0)" xlink:href="#aC"/><use transform="matrix(0.06172839506172839,0,0,0.06172839506172839,30.80246913580247,0)" xlink:href="#aA"/><use transform="matrix(0.06172839506172839,0,0,0.06172839506172839,41.91358024691358,0)" xlink:href="#an"/><use transform="matrix(0.06172839506172839,0,0,0.06172839506172839,46.79012345679013,0)" xlink:href="#ar"/><use transform="matrix(0.06172839506172839,0,0,0.06172839506172839,59.135802469135804,0)" xlink:href="#as"/></g><path fill="#fff" d="M115-194c55 1 70 41 70 98S169 2 115 4C84 4 66-9 55-30l1 105H24l-1-265h31l2 30c10-21 28-34 59-34zm-8 174c40 0 45-34 45-75s-6-73-45-74c-42 0-51 32-51 76 0 43 10 73 51 73" id="aO"/><path fill="#fff" d="M141-36C126-15 110 5 73 4 37 3 15-17 15-53c-1-64 63-63 125-63 3-35-9-54-41-54-24 1-41 7-42 31l-33-3c5-37 33-52 76-52 45 0 72 20 72 64v82c-1 20 7 32 28 27v20c-31 9-61-2-59-35zM48-53c0 20 12 33 32 33 41-3 63-29 60-74-43 2-92-5-92 41" id="aP"/><path fill="#fff" d="M96-169c-40 0-48 33-48 73s9 75 48 75c24 0 41-14 43-38l32 2c-6 37-31 61-74 61-59 0-76-41-82-99-10-93 101-131 147-64 4 7 5 14 7 22l-32 3c-4-21-16-35-41-35" id="aQ"/><path fill="#fff" d="M143 0L79-87 56-68V0H24v-261h32v163l83-92h37l-77 82L181 0h-38" id="aR"/><path fill="#fff" d="M177-190C167-65 218 103 67 71c-23-6-38-20-44-43l32-5c15 47 100 32 89-28v-30C133-14 115 1 83 1 29 1 15-40 15-95c0-56 16-97 71-98 29-1 48 16 59 35 1-10 0-23 2-32h30zM94-22c36 0 50-32 50-73 0-42-14-75-50-75-39 0-46 34-46 75s6 73 46 73" id="aS"/><path fill="#fff" d="M100-194c63 0 86 42 84 106H49c0 40 14 67 53 68 26 1 43-12 49-29l28 8c-11 28-37 45-77 45C44 4 14-33 15-96c1-61 26-98 85-98zm52 81c6-60-76-77-97-28-3 7-6 17-6 28h103" id="aT"/><g id="E"><use transform="matrix(0.06172839506172839,0,0,0.06172839506172839,0,0)" xlink:href="#aO"/><use transform="matrix(0.06172839506172839,0,0,0.06172839506172839,12.345679012345679,0)" xlink:href="#aP"/><use transform="matrix(0.06172839506172839,0,0,0.06172839506172839,24.691358024691358,0)" xlink:href="#aQ"/><use transform="matrix(0.06172839506172839,0,0,0.06172839506172839,35.80246913580247,0)" xlink:href="#aR"/><use transform="matrix(0.06172839506172839,0,0,0.06172839506172839,46.91358024691358,0)" xlink:href="#aP"/><use transform="matrix(0.06172839506172839,0,0,0.06172839506172839,59.25925925925926,0)" xlink:href="#aS"/><use transform="matrix(0.06172839506172839,0,0,0.06172839506172839,71.60493827160494,0)" xlink:href="#aT"/></g><path fill="#fff" d="M135-143c-3-34-86-38-87 0 15 53 115 12 119 90S17 21 10-45l28-5c4 36 97 45 98 0-10-56-113-15-118-90-4-57 82-63 122-42 12 7 21 19 24 35" id="aU"/><path fill="#fff" d="M100-194c62-1 85 37 85 99 1 63-27 99-86 99S16-35 15-95c0-66 28-99 85-99zM99-20c44 1 53-31 53-75 0-43-8-75-51-75s-53 32-53 75 10 74 51 75" id="aV"/><path fill="#fff" d="M84 4C-5 8 30-112 23-190h32v120c0 31 7 50 39 49 72-2 45-101 50-169h31l1 190h-30c-1-10 1-25-2-33-11 22-28 36-60 37" id="aW"/><path fill="#fff" d="M114-163C36-179 61-72 57 0H25l-1-190h30c1 12-1 29 2 39 6-27 23-49 58-41v29" id="aX"/><g id="F"><use transform="matrix(0.06172839506172839,0,0,0.06172839506172839,0,0)" xlink:href="#aU"/><use transform="matrix(0.06172839506172839,0,0,0.06172839506172839,11.11111111111111,0)" xlink:href="#aV"/><use transform="matrix(0.06172839506172839,0,0,0.06172839506172839,23.45679012345679,0)" xlink:href="#aW"/><use transform="matrix(0.06172839506172839,0,0,0.06172839506172839,35.80246913580247,0)" xlink:href="#aX"/><use transform="matrix(0.06172839506172839,0,0,0.06172839506172839,43.148148148148145,0)" xlink:href="#aQ"/><use transform="matrix(0.06172839506172839,0,0,0.06172839506172839,54.25925925925925,0)" xlink:href="#aT"/></g><path fill="#fff" d="M85-194c31 0 48 13 60 33l-1-100h32l1 261h-30c-2-10 0-23-3-31C134-8 116 4 85 4 32 4 16-35 15-94c0-66 23-100 70-100zm9 24c-40 0-46 34-46 75 0 40 6 74 45 74 42 0 51-32 51-76 0-42-9-74-50-73" id="aY"/><g id="G"><use transform="matrix(0.06172839506172839,0,0,0.06172839506172839,0,0)" xlink:href="#aQ"/><use transform="matrix(0.06172839506172839,0,0,0.06172839506172839,11.11111111111111,0)" xlink:href="#aV"/><use transform="matrix(0.06172839506172839,0,0,0.06172839506172839,23.45679012345679,0)" xlink:href="#aY"/><use transform="matrix(0.06172839506172839,0,0,0.06172839506172839,35.80246913580247,0)" xlink:href="#aT"/></g><path fill="#fff" d="M117-194c89-4 53 116 60 194h-32v-121c0-31-8-49-39-48C34-167 62-67 57 0H25l-1-190h30c1 10-1 24 2 32 11-22 29-35 61-36" id="aZ"/><g id="H"><use transform="matrix(0.06172839506172839,0,0,0.06172839506172839,0,0)" xlink:href="#aQ"/><use transform="matrix(0.06172839506172839,0,0,0.06172839506172839,11.11111111111111,0)" xlink:href="#aV"/><use transform="matrix(0.06172839506172839,0,0,0.06172839506172839,23.45679012345679,0)" xlink:href="#aZ"/><use transform="matrix(0.06172839506172839,0,0,0.06172839506172839,35.80246913580247,0)" xlink:href="#aY"/><use transform="matrix(0.06172839506172839,0,0,0.06172839506172839,48.148148148148145,0)" xlink:href="#aP"/></g><g id="I"><use transform="matrix(0.06172839506172839,0,0,0.06172839506172839,0,0)" xlink:href="#aO"/><use transform="matrix(0.06172839506172839,0,0,0.06172839506172839,12.345679012345679,0)" xlink:href="#aP"/><use transform="matrix(0.06172839506172839,0,0,0.06172839506172839,24.691358024691358,0)" xlink:href="#aQ"/><use transform="matrix(0.06172839506172839,0,0,0.06172839506172839,35.80246913580247,0)" xlink:href="#aR"/><use transform="matrix(0.06172839506172839,0,0,0.06172839506172839,46.91358024691358,0)" xlink:href="#aP"/><use transform="matrix(0.06172839506172839,0,0,0.06172839506172839,59.25925925925926,0)" xlink:href="#aS"/><use transform="matrix(0.06172839506172839,0,0,0.06172839506172839,71.60493827160494,0)" xlink:href="#aT"/></g><path d="M622-916c-112 2-200 14-200 111 0 90 89 101 168 121 234 58 514 77 514 368C1104-4 751 54 434 5 267-21 161-112 121-270l247-37c24 111 113 145 252 141 114-3 226-12 226-124 0-101-103-113-192-134-225-54-490-76-490-351 0-247 201-328 458-328 245 0 413 88 457 292l-249 26c-16-98-92-133-208-131" id="ba"/><path d="M470 0v-305h289V0H470" id="bb"/><path d="M89 20l821-1504h228L321 20H89" id="bc"/><path d="M117-675c0-408 109-695 502-695 384 0 492 295 492 695 0 326-84 561-303 658-117 51-277 52-394 1-217-95-297-335-297-659zm591 451c148-93 132-449 108-680-15-138-53-246-199-246-150 0-193 107-207 248-22 230-40 585 106 678 50 32 141 32 192 0zM506-555v-249h215v249H506" id="bd"/><path d="M919 0L616-493 312 0H0l459-711-418-638h312l263 430 262-430h310L760-711 1229 0H919" id="be"/><path d="M761-556V0H467v-556L3-1349h309l300 566 304-566h309" id="bf"/><path d="M1138 0H87v-209l671-909H163v-231h934v205L426-231h712V0" id="bg"/><path d="M101-516v-322l1027-391v228L295-676l833 324v227" id="bh"/><path d="M471 20c-247 0-336-169-336-415v-687h281v607c4 148 31 285 172 285 152 0 207-150 207-312v-580h281c4 359-9 736 8 1082H816c-7-63-11-146-12-215h-5C736-76 644 20 471 20" id="bi"/><path d="M101-125v-227l832-324-832-325v-228l1027 391v322" id="bj"/><g id="J"><use transform="matrix(0.008789062499999997,0,0,0.008789062499999997,0,0)" xlink:href="#W"/><use transform="matrix(0.008789062499999997,0,0,0.008789062499999997,10.801757812499996,0)" xlink:href="#X"/><use transform="matrix(0.008789062499999997,0,0,0.008789062499999997,21.603515624999993,0)" xlink:href="#Y"/><use transform="matrix(0.008789062499999997,0,0,0.008789062499999997,32.405273437499986,0)" xlink:href="#Z"/><use transform="matrix(0.008789062499999997,0,0,0.008789062499999997,43.207031249999986,0)" xlink:href="#X"/><use transform="matrix(0.008789062499999997,0,0,0.008789062499999997,54.008789062499986,0)" xlink:href="#aa"/><use transform="matrix(0.008789062499999997,0,0,0.008789062499999997,64.81054687499999,0)" xlink:href="#ab"/><use transform="matrix(0.008789062499999997,0,0,0.008789062499999997,75.61230468749999,0)" xlink:href="#ba"/><use transform="matrix(0.008789062499999997,0,0,0.008789062499999997,86.41406249999999,0)" xlink:href="#bb"/><use transform="matrix(0.008789062499999997,0,0,0.008789062499999997,97.2158203125,0)" xlink:href="#aF"/><use transform="matrix(0.008789062499999997,0,0,0.008789062499999997,108.01757812499999,0)" xlink:href="#ac"/><use transform="matrix(0.008789062499999997,0,0,0.008789062499999997,118.81933593749999,0)" xlink:href="#ac"/><use transform="matrix(0.008789062499999997,0,0,0.008789062499999997,129.62109374999997,0)" xlink:href="#aK"/><use transform="matrix(0.008789062499999997,0,0,0.008789062499999997,140.42285156249997,0)" xlink:href="#ab"/><use transform="matrix(0.008789062499999997,0,0,0.008789062499999997,151.22460937499997,0)" xlink:href="#aG"/><use transform="matrix(0.008789062499999997,0,0,0.008789062499999997,162.02636718749997,0)" xlink:href="#bb"/><use transform="matrix(0.008789062499999997,0,0,0.008789062499999997,172.82812499999997,0)" xlink:href="#ag"/><use transform="matrix(0.008789062499999997,0,0,0.008789062499999997,183.62988281249997,0)" xlink:href="#af"/><use transform="matrix(0.008789062499999997,0,0,0.008789062499999997,194.431640625,0)" xlink:href="#aa"/><use transform="matrix(0.008789062499999997,0,0,0.008789062499999997,205.23339843749997,0)" xlink:href="#bc"/><use transform="matrix(0.008789062499999997,0,0,0.008789062499999997,216.03515624999997,0)" xlink:href="#aF"/><use transform="matrix(0.008789062499999997,0,0,0.008789062499999997,226.83691406249997,0)" xlink:href="#ac"/><use transform="matrix(0.008789062499999997,0,0,0.008789062499999997,237.63867187499997,0)" xlink:href="#ac"/><use transform="matrix(0.008789062499999997,0,0,0.008789062499999997,248.44042968749997,0)" xlink:href="#aK"/><use transform="matrix(0.008789062499999997,0,0,0.008789062499999997,259.24218749999994,0)" xlink:href="#ab"/><use transform="matrix(0.008789062499999997,0,0,0.008789062499999997,270.04394531249994,0)" xlink:href="#aG"/><use transform="matrix(0.008789062499999997,0,0,0.008789062499999997,280.84570312499994,0)" xlink:href="#bc"/><use transform="matrix(0.008789062499999997,0,0,0.008789062499999997,291.64746093749994,0)" xlink:href="#aG"/><use transform="matrix(0.008789062499999997,0,0,0.008789062499999997,302.44921874999994,0)" xlink:href="#bd"/><use transform="matrix(0.008789062499999997,0,0,0.008789062499999997,313.25097656249994,0)" xlink:href="#be"/><use transform="matrix(0.008789062499999997,0,0,0.008789062499999997,324.05273437499994,0)" xlink:href="#bf"/><use transform="matrix(0.008789062499999997,0,0,0.008789062499999997,334.85449218749994,0)" xlink:href="#bb"/><use transform="matrix(0.008789062499999997,0,0,0.008789062499999997,345.65624999999994,0)" xlink:href="#bg"/><use transform="matrix(0.008789062499999997,0,0,0.008789062499999997,356.45800781249994,0)" xlink:href="#bc"/><use transform="matrix(0.008789062499999997,0,0,0.008789062499999997,367.25976562499994,0)" xlink:href="#bh"/><use transform="matrix(0.008789062499999997,0,0,0.008789062499999997,378.0615234374999,0)" xlink:href="#aH"/><use transform="matrix(0.008789062499999997,0,0,0.008789062499999997,388.86328125,0)" xlink:href="#ac"/><use transform="matrix(0.008789062499999997,0,0,0.008789062499999997,399.66503906249994,0)" xlink:href="#ba"/><use transform="matrix(0.008789062499999997,0,0,0.008789062499999997,410.46679687499994,0)" xlink:href="#ae"/><use transform="matrix(0.008789062499999997,0,0,0.008789062499999997,421.26855468749994,0)" xlink:href="#af"/><use transform="matrix(0.008789062499999997,0,0,0.008789062499999997,432.07031249999994,0)" xlink:href="#ac"/><use transform="matrix(0.008789062499999997,0,0,0.008789062499999997,442.87207031249994,0)" xlink:href="#aj"/><use transform="matrix(0.008789062499999997,0,0,0.008789062499999997,453.67382812499994,0)" xlink:href="#bi"/><use transform="matrix(0.008789062499999997,0,0,0.008789062499999997,464.47558593749994,0)" xlink:href="#ae"/><use transform="matrix(0.008789062499999997,0,0,0.008789062499999997,475.27734374999994,0)" xlink:href="#ac"/><use transform="matrix(0.008789062499999997,0,0,0.008789062499999997,486.07910156249994,0)" xlink:href="#ag"/><use transform="matrix(0.008789062499999997,0,0,0.008789062499999997,496.88085937499994,0)" xlink:href="#ad"/><use transform="matrix(0.008789062499999997,0,0,0.008789062499999997,507.68261718749994,0)" xlink:href="#bj"/><use transform="matrix(0.008789062499999997,0,0,0.008789062499999997,518.4843749999999,0)" xlink:href="#bc"/><use transform="matrix(0.008789062499999997,0,0,0.008789062499999997,529.2861328124999,0)" xlink:href="#W"/><use transform="matrix(0.008789062499999997,0,0,0.008789062499999997,540.0878906249999,0)" xlink:href="#X"/><use transform="matrix(0.008789062499999997,0,0,0.008789062499999997,550.8896484374999,0)" xlink:href="#ba"/><use transform="matrix(0.008789062499999997,0,0,0.008789062499999997,561.6914062499999,0)" xlink:href="#ba"/><use transform="matrix(0.008789062499999997,0,0,0.008789062499999997,572.4931640624999,0)" xlink:href="#ab"/><use transform="matrix(0.008789062499999997,0,0,0.008789062499999997,583.2949218749999,0)" xlink:href="#aH"/><path d="M-.9 3.3H595v1.8H-.9z"/></g><path fill="#fff" d="M109-170H84l-4-78h32zm-65 0H19l-4-78h33" id="bk"/><g id="K"><use transform="matrix(0.06172839506172839,0,0,0.06172839506172839,0,0)" xlink:href="#bk"/><use transform="matrix(0.06172839506172839,0,0,0.06172839506172839,7.8395061728395055,0)" xlink:href="#aO"/><use transform="matrix(0.06172839506172839,0,0,0.06172839506172839,20.185185185185183,0)" xlink:href="#aP"/><use transform="matrix(0.06172839506172839,0,0,0.06172839506172839,32.53086419753086,0)" xlink:href="#aU"/><use transform="matrix(0.06172839506172839,0,0,0.06172839506172839,43.641975308641975,0)" xlink:href="#aU"/><use transform="matrix(0.06172839506172839,0,0,0.06172839506172839,54.75308641975309,0)" xlink:href="#aT"/><use transform="matrix(0.06172839506172839,0,0,0.06172839506172839,67.09876543209877,0)" xlink:href="#aY"/><use transform="matrix(0.06172839506172839,0,0,0.06172839506172839,79.44444444444446,0)" xlink:href="#bk"/></g><g id="L"><use transform="matrix(0.06172839506172839,0,0,0.06172839506172839,0,0)" xlink:href="#aQ"/><use transform="matrix(0.06172839506172839,0,0,0.06172839506172839,11.11111111111111,0)" xlink:href="#aV"/><use transform="matrix(0.06172839506172839,0,0,0.06172839506172839,23.45679012345679,0)" xlink:href="#aZ"/><use transform="matrix(0.06172839506172839,0,0,0.06172839506172839,35.80246913580247,0)" xlink:href="#aY"/><use transform="matrix(0.06172839506172839,0,0,0.06172839506172839,48.148148148148145,0)" xlink:href="#aP"/></g><g id="M"><use transform="matrix(0.06172839506172839,0,0,0.06172839506172839,0,0)" xlink:href="#aO"/><use transform="matrix(0.06172839506172839,0,0,0.06172839506172839,12.345679012345679,0)" xlink:href="#aP"/><use transform="matrix(0.06172839506172839,0,0,0.06172839506172839,24.691358024691358,0)" xlink:href="#aQ"/><use transform="matrix(0.06172839506172839,0,0,0.06172839506172839,35.80246913580247,0)" xlink:href="#aR"/><use transform="matrix(0.06172839506172839,0,0,0.06172839506172839,46.91358024691358,0)" xlink:href="#aP"/><use transform="matrix(0.06172839506172839,0,0,0.06172839506172839,59.25925925925926,0)" xlink:href="#aS"/><use transform="matrix(0.06172839506172839,0,0,0.06172839506172839,71.60493827160494,0)" xlink:href="#aT"/></g><path fill="#fff" d="M24 0v-261h32V0H24" id="bl"/><g id="N"><use transform="matrix(0.06172839506172839,0,0,0.06172839506172839,0,0)" xlink:href="#bk"/><use transform="matrix(0.06172839506172839,0,0,0.06172839506172839,7.8395061728395055,0)" xlink:href="#aX"/><use transform="matrix(0.06172839506172839,0,0,0.06172839506172839,15.185185185185183,0)" xlink:href="#aT"/><use transform="matrix(0.06172839506172839,0,0,0.06172839506172839,27.53086419753086,0)" xlink:href="#bl"/><use transform="matrix(0.06172839506172839,0,0,0.06172839506172839,32.407407407407405,0)" xlink:href="#aT"/><use transform="matrix(0.06172839506172839,0,0,0.06172839506172839,44.75308641975308,0)" xlink:href="#aP"/><use transform="matrix(0.06172839506172839,0,0,0.06172839506172839,57.09876543209876,0)" xlink:href="#aU"/><use transform="matrix(0.06172839506172839,0,0,0.06172839506172839,68.20987654320987,0)" xlink:href="#aT"/><use transform="matrix(0.06172839506172839,0,0,0.06172839506172839,80.55555555555556,0)" xlink:href="#aY"/><use transform="matrix(0.06172839506172839,0,0,0.06172839506172839,92.90123456790124,0)" xlink:href="#bk"/></g><path fill="#fff" d="M210-169c-67 3-38 105-44 169h-31v-121c0-29-5-50-35-48C34-165 62-65 56 0H25l-1-190h30c1 10-1 24 2 32 10-44 99-50 107 0 11-21 27-35 58-36 85-2 47 119 55 194h-31v-121c0-29-5-49-35-48" id="bm"/><path fill="#fff" d="M59-47c-2 24 18 29 38 22v24C64 9 27 4 27-40v-127H5v-23h24l9-43h21v43h35v23H59v120" id="bn"/><g id="O"><use transform="matrix(0.06172839506172839,0,0,0.06172839506172839,0,0)" xlink:href="#bm"/><use transform="matrix(0.06172839506172839,0,0,0.06172839506172839,18.456790123456788,0)" xlink:href="#aT"/><use transform="matrix(0.06172839506172839,0,0,0.06172839506172839,30.80246913580247,0)" xlink:href="#bn"/><use transform="matrix(0.06172839506172839,0,0,0.06172839506172839,36.97530864197531,0)" xlink:href="#aP"/><use transform="matrix(0.06172839506172839,0,0,0.06172839506172839,49.32098765432099,0)" xlink:href="#aO"/><use transform="matrix(0.06172839506172839,0,0,0.06172839506172839,61.666666666666664,0)" xlink:href="#aP"/><use transform="matrix(0.06172839506172839,0,0,0.06172839506172839,74.01234567901234,0)" xlink:href="#aQ"/><use transform="matrix(0.06172839506172839,0,0,0.06172839506172839,85.12345679012346,0)" xlink:href="#aR"/><use transform="matrix(0.06172839506172839,0,0,0.06172839506172839,96.23456790123457,0)" xlink:href="#aP"/><use transform="matrix(0.06172839506172839,0,0,0.06172839506172839,108.58024691358025,0)" xlink:href="#aS"/><use transform="matrix(0.06172839506172839,0,0,0.06172839506172839,120.92592592592594,0)" xlink:href="#aT"/></g><path fill="#fff" d="M115-194c53 0 69 39 70 98 0 66-23 100-70 100C84 3 66-7 56-30L54 0H23l1-261h32v101c10-23 28-34 59-34zm-8 174c40 0 45-34 45-75 0-40-5-75-45-74-42 0-51 32-51 76 0 43 10 73 51 73" id="bo"/><path fill="#fff" d="M24-231v-30h32v30H24zM24 0v-190h32V0H24" id="bp"/><g id="P"><use transform="matrix(0.06172839506172839,0,0,0.06172839506172839,0,0)" xlink:href="#bo"/><use transform="matrix(0.06172839506172839,0,0,0.06172839506172839,12.345679012345679,0)" xlink:href="#aW"/><use transform="matrix(0.06172839506172839,0,0,0.06172839506172839,24.691358024691358,0)" xlink:href="#bp"/><use transform="matrix(0.06172839506172839,0,0,0.06172839506172839,29.5679012345679,0)" xlink:href="#bl"/><use transform="matrix(0.06172839506172839,0,0,0.06172839506172839,34.44444444444444,0)" xlink:href="#aY"/></g><path fill="#fff" d="M101-234c-31-9-42 10-38 44h38v23H63V0H32v-167H5v-23h27c-7-52 17-82 69-68v24" id="bq"/><g id="Q"><use transform="matrix(0.06172839506172839,0,0,0.06172839506172839,0,0)" xlink:href="#aQ"/><use transform="matrix(0.06172839506172839,0,0,0.06172839506172839,11.11111111111111,0)" xlink:href="#aV"/><use transform="matrix(0.06172839506172839,0,0,0.06172839506172839,23.45679012345679,0)" xlink:href="#aZ"/><use transform="matrix(0.06172839506172839,0,0,0.06172839506172839,35.80246913580247,0)" xlink:href="#bq"/><use transform="matrix(0.06172839506172839,0,0,0.06172839506172839,41.97530864197531,0)" xlink:href="#bp"/><use transform="matrix(0.06172839506172839,0,0,0.06172839506172839,46.851851851851855,0)" xlink:href="#aS"/></g><path d="M844-1321c-130 0-195 53-191 182v57h443v190H653V0H373v-892H117v-190h256v-83c5-247 162-348 422-349 120-1 232 13 327 28v184c-84-10-183-19-278-19" id="br"/><g id="R"><use transform="matrix(0.008789062499999997,0,0,0.008789062499999997,0,0)" xlink:href="#ac"/><use transform="matrix(0.008789062499999997,0,0,0.008789062499999997,10.801757812499996,0)" xlink:href="#ad"/><use transform="matrix(0.008789062499999997,0,0,0.008789062499999997,21.603515624999993,0)" xlink:href="#br"/><use transform="matrix(0.008789062499999997,0,0,0.008789062499999997,32.405273437499986,0)" xlink:href="#af"/><use transform="matrix(0.008789062499999997,0,0,0.008789062499999997,43.207031249999986,0)" xlink:href="#X"/><use transform="matrix(0.008789062499999997,0,0,0.008789062499999997,54.008789062499986,0)" xlink:href="#ba"/><use transform="matrix(0.008789062499999997,0,0,0.008789062499999997,64.81054687499999,0)" xlink:href="#ae"/><use transform="matrix(0.008789062499999997,0,0,0.008789062499999997,75.61230468749999,0)" xlink:href="#af"/><use transform="matrix(0.008789062499999997,0,0,0.008789062499999997,86.41406249999999,0)" xlink:href="#bi"/><use transform="matrix(0.008789062499999997,0,0,0.008789062499999997,97.2158203125,0)" xlink:href="#Y"/><use transform="matrix(0.008789062499999997,0,0,0.008789062499999997,108.01757812499999,0)" xlink:href="#ae"/><use transform="matrix(0.008789062499999997,0,0,0.008789062499999997,118.81933593749999,0)" xlink:href="#bi"/><use transform="matrix(0.008789062499999997,0,0,0.008789062499999997,129.62109374999997,0)" xlink:href="#af"/><use transform="matrix(0.008789062499999997,0,0,0.008789062499999997,140.42285156249997,0)" xlink:href="#ab"/><path d="M-.9 3.3h153.02v1.8H-.9z"/></g><g id="S"><use transform="matrix(0.055555555555555546,0,0,0.055555555555555546,0,0)" xlink:href="#aY"/><use transform="matrix(0.055555555555555546,0,0,0.055555555555555546,11.111111111111109,0)" xlink:href="#aP"/><use transform="matrix(0.055555555555555546,0,0,0.055555555555555546,22.222222222222218,0)" xlink:href="#bn"/><use transform="matrix(0.055555555555555546,0,0,0.055555555555555546,27.77777777777777,0)" xlink:href="#aP"/></g><g id="T"><use transform="matrix(0.049382716049382706,0,0,0.049382716049382706,0,0)" xlink:href="#au"/><use transform="matrix(0.049382716049382706,0,0,0.049382716049382706,9.87654320987654,0)" xlink:href="#aC"/><use transform="matrix(0.049382716049382706,0,0,0.049382716049382706,15.75308641975308,0)" xlink:href="#ar"/><use transform="matrix(0.049382716049382706,0,0,0.049382716049382706,25.629629629629626,0)" xlink:href="#aq"/><use transform="matrix(0.049382716049382706,0,0,0.049382716049382706,34.51851851851851,0)" xlink:href="#ax"/><use transform="matrix(0.049382716049382706,0,0,0.049382716049382706,44.39506172839505,0)" xlink:href="#aA"/><use transform="matrix(0.049382716049382706,0,0,0.049382716049382706,53.28395061728394,0)" xlink:href="#aA"/></g><g id="U"><use transform="matrix(0.055555555555555546,0,0,0.055555555555555546,0,0)" xlink:href="#ao"/><use transform="matrix(0.055555555555555546,0,0,0.055555555555555546,4.388888888888888,0)" xlink:href="#ax"/><use transform="matrix(0.055555555555555546,0,0,0.055555555555555546,15.499999999999996,0)" xlink:href="#aw"/><use transform="matrix(0.055555555555555546,0,0,0.055555555555555546,26.611111111111107,0)" xlink:href="#ax"/><use transform="matrix(0.055555555555555546,0,0,0.055555555555555546,37.722222222222214,0)" xlink:href="#as"/><use transform="matrix(0.055555555555555546,0,0,0.055555555555555546,48.83333333333332,0)" xlink:href="#ap"/><path fill="#333" d="M-1 1.4h61.94v1.45H-1z"/></g><g id="V"><use transform="matrix(0.008789062499999997,0,0,0.008789062499999997,0,0)" xlink:href="#W"/><use transform="matrix(0.008789062499999997,0,0,0.008789062499999997,10.801757812499996,0)" xlink:href="#X"/><use transform="matrix(0.008789062499999997,0,0,0.008789062499999997,21.603515624999993,0)" xlink:href="#Y"/><use transform="matrix(0.008789062499999997,0,0,0.008789062499999997,32.405273437499986,0)" xlink:href="#Z"/><use transform="matrix(0.008789062499999997,0,0,0.008789062499999997,43.207031249999986,0)" xlink:href="#X"/><use transform="matrix(0.008789062499999997,0,0,0.008789062499999997,54.008789062499986,0)" xlink:href="#aa"/><use transform="matrix(0.008789062499999997,0,0,0.008789062499999997,64.81054687499999,0)" xlink:href="#ab"/><use transform="matrix(0.008789062499999997,0,0,0.008789062499999997,75.61230468749999,0)" xlink:href="#ba"/><use transform="matrix(0.008789062499999997,0,0,0.008789062499999997,86.41406249999999,0)" xlink:href="#bb"/><use transform="matrix(0.008789062499999997,0,0,0.008789062499999997,97.2158203125,0)" xlink:href="#aF"/><use transform="matrix(0.008789062499999997,0,0,0.008789062499999997,108.01757812499999,0)" xlink:href="#ac"/><use transform="matrix(0.008789062499999997,0,0,0.008789062499999997,118.81933593749999,0)" xlink:href="#ac"/><use transform="matrix(0.008789062499999997,0,0,0.008789062499999997,129.62109374999997,0)" xlink:href="#aK"/><use transform="matrix(0.008789062499999997,0,0,0.008789062499999997,140.42285156249997,0)" xlink:href="#ab"/><use transform="matrix(0.008789062499999997,0,0,0.008789062499999997,151.22460937499997,0)" xlink:href="#aG"/><use transform="matrix(0.008789062499999997,0,0,0.008789062499999997,162.02636718749997,0)" xlink:href="#bb"/><use transform="matrix(0.008789062499999997,0,0,0.008789062499999997,172.82812499999997,0)" xlink:href="#ag"/><use transform="matrix(0.008789062499999997,0,0,0.008789062499999997,183.62988281249997,0)" xlink:href="#af"/><use transform="matrix(0.008789062499999997,0,0,0.008789062499999997,194.431640625,0)" xlink:href="#aa"/><use transform="matrix(0.008789062499999997,0,0,0.008789062499999997,205.23339843749997,0)" xlink:href="#bc"/><use transform="matrix(0.008789062499999997,0,0,0.008789062499999997,216.03515624999997,0)" xlink:href="#aF"/><use transform="matrix(0.008789062499999997,0,0,0.008789062499999997,226.83691406249997,0)" xlink:href="#ac"/><use transform="matrix(0.008789062499999997,0,0,0.008789062499999997,237.63867187499997,0)" xlink:href="#ac"/><use transform="matrix(0.008789062499999997,0,0,0.008789062499999997,248.44042968749997,0)" xlink:href="#aK"/><use transform="matrix(0.008789062499999997,0,0,0.008789062499999997,259.24218749999994,0)" xlink:href="#ab"/><use transform="matrix(0.008789062499999997,0,0,0.008789062499999997,270.04394531249994,0)" xlink:href="#aG"/><use transform="matrix(0.008789062499999997,0,0,0.008789062499999997,280.84570312499994,0)" xlink:href="#bc"/><use transform="matrix(0.008789062499999997,0,0,0.008789062499999997,291.64746093749994,0)" xlink:href="#aG"/><use transform="matrix(0.008789062499999997,0,0,0.008789062499999997,302.44921874999994,0)" xlink:href="#bd"/><use transform="matrix(0.008789062499999997,0,0,0.008789062499999997,313.25097656249994,0)" xlink:href="#be"/><use transform="matrix(0.008789062499999997,0,0,0.008789062499999997,324.05273437499994,0)" xlink:href="#bf"/><use transform="matrix(0.008789062499999997,0,0,0.008789062499999997,334.85449218749994,0)" xlink:href="#bb"/><use transform="matrix(0.008789062499999997,0,0,0.008789062499999997,345.65624999999994,0)" xlink:href="#bg"/><use transform="matrix(0.008789062499999997,0,0,0.008789062499999997,356.45800781249994,0)" xlink:href="#bc"/><use transform="matrix(0.008789062499999997,0,0,0.008789062499999997,367.25976562499994,0)" xlink:href="#bh"/><use transform="matrix(0.008789062499999997,0,0,0.008789062499999997,378.0615234374999,0)" xlink:href="#aH"/><use transform="matrix(0.008789062499999997,0,0,0.008789062499999997,388.86328125,0)" xlink:href="#ac"/><use transform="matrix(0.008789062499999997,0,0,0.008789062499999997,399.66503906249994,0)" xlink:href="#ba"/><use transform="matrix(0.008789062499999997,0,0,0.008789062499999997,410.46679687499994,0)" xlink:href="#ae"/><use transform="matrix(0.008789062499999997,0,0,0.008789062499999997,421.26855468749994,0)" xlink:href="#af"/><use transform="matrix(0.008789062499999997,0,0,0.008789062499999997,432.07031249999994,0)" xlink:href="#ac"/><use transform="matrix(0.008789062499999997,0,0,0.008789062499999997,442.87207031249994,0)" xlink:href="#aj"/><use transform="matrix(0.008789062499999997,0,0,0.008789062499999997,453.67382812499994,0)" xlink:href="#bi"/><use transform="matrix(0.008789062499999997,0,0,0.008789062499999997,464.47558593749994,0)" xlink:href="#ae"/><use transform="matrix(0.008789062499999997,0,0,0.008789062499999997,475.27734374999994,0)" xlink:href="#ac"/><use transform="matrix(0.008789062499999997,0,0,0.008789062499999997,486.07910156249994,0)" xlink:href="#ag"/><use transform="matrix(0.008789062499999997,0,0,0.008789062499999997,496.88085937499994,0)" xlink:href="#ad"/><use transform="matrix(0.008789062499999997,0,0,0.008789062499999997,507.68261718749994,0)" xlink:href="#bj"/><use transform="matrix(0.008789062499999997,0,0,0.008789062499999997,518.4843749999999,0)" xlink:href="#bc"/><use transform="matrix(0.008789062499999997,0,0,0.008789062499999997,529.2861328124999,0)" xlink:href="#af"/><use transform="matrix(0.008789062499999997,0,0,0.008789062499999997,540.0878906249999,0)" xlink:href="#ab"/><use transform="matrix(0.008789062499999997,0,0,0.008789062499999997,550.8896484374999,0)" xlink:href="#ai"/><use transform="matrix(0.008789062499999997,0,0,0.008789062499999997,561.6914062499999,0)" xlink:href="#ab"/><use transform="matrix(0.008789062499999997,0,0,0.008789062499999997,572.4931640624999,0)" xlink:href="#X"/><use transform="matrix(0.008789062499999997,0,0,0.008789062499999997,583.2949218749999,0)" xlink:href="#ba"/><use transform="matrix(0.008789062499999997,0,0,0.008789062499999997,594.0966796874999,0)" xlink:href="#ab"/><use transform="matrix(0.008789062499999997,0,0,0.008789062499999997,604.8984374999999,0)" xlink:href="#aH"/><path d="M-.9 3.3h617.5v1.8H-.9z"/></g></defs></g></svg>
