<?xml version="1.0" encoding="UTF-8"?><svg xmlns="http://www.w3.org/2000/svg" xmlns:xlink="http://www.w3.org/1999/xlink" fill-opacity="1" color-rendering="auto" color-interpolation="auto" text-rendering="auto" stroke="black" stroke-linecap="square" width="148" stroke-miterlimit="10" shape-rendering="auto" stroke-opacity="1" fill="black" stroke-dasharray="none" font-weight="normal" stroke-width="1" height="248" font-family="'Dialog'" font-style="normal" stroke-linejoin="miter" font-size="12px" stroke-dashoffset="0" image-rendering="auto">
  <!--Generated by ySVG 2.5-->
  <defs id="genericDefs"/>
  <g>
    <defs id="defs1">
      <linearGradient x1="970.4556" gradientUnits="userSpaceOnUse" x2="1041.7889" y1="303.396" y2="303.396" id="linearGradient1" spreadMethod="reflect">
        <stop stop-opacity="1" stop-color="white" offset="0%"/>
        <stop stop-opacity="1" stop-color="white" offset="100%"/>
      </linearGradient>
      <clipPath clipPathUnits="userSpaceOnUse" id="clipPath1">
        <path d="M0 0 L148 0 L148 248 L0 248 L0 0 Z"/>
      </clipPath>
      <clipPath clipPathUnits="userSpaceOnUse" id="clipPath2">
        <path d="M909 278 L1057 278 L1057 526 L909 526 L909 278 Z"/>
      </clipPath>
    </defs>
    <g fill="white" text-rendering="geometricPrecision" shape-rendering="geometricPrecision" transform="translate(-909,-278)" stroke="white">
      <rect x="909" width="148" height="248" y="278" clip-path="url(#clipPath2)" stroke="none"/>
    </g>
    <g fill="white" text-rendering="geometricPrecision" shape-rendering="geometricPrecision" transform="matrix(1,0,0,1,-909,-278)" stroke="white">
      <rect x="934.789" width="107" height="44.2" y="382.596" clip-path="url(#clipPath2)" stroke="none"/>
    </g>
    <g text-rendering="geometricPrecision" stroke-miterlimit="1.45" shape-rendering="geometricPrecision" transform="matrix(1,0,0,1,-909,-278)" stroke-linecap="butt">
      <rect fill="none" x="934.789" width="107" height="44.2" y="382.596" clip-path="url(#clipPath2)"/>
      <text x="958.5995" xml:space="preserve" y="401.6081" clip-path="url(#clipPath2)" font-family="'Consolas'" stroke="none">Framework</text>
      <text x="961.8983" xml:space="preserve" y="413.6081" clip-path="url(#clipPath2)" font-family="'Consolas'" stroke="none">&lt;qiime2&gt;</text>
    </g>
    <g fill="white" text-rendering="geometricPrecision" shape-rendering="geometricPrecision" transform="matrix(1,0,0,1,-909,-278)" stroke="white">
      <rect x="924.789" width="107" height="44.2" y="456.796" clip-path="url(#clipPath2)" stroke="none"/>
    </g>
    <g text-rendering="geometricPrecision" stroke-miterlimit="1.45" shape-rendering="geometricPrecision" transform="matrix(1,0,0,1,-909,-278)" stroke-linecap="butt">
      <rect fill="none" x="924.789" width="107" height="44.2" y="456.796" clip-path="url(#clipPath2)"/>
    </g>
    <g fill="white" text-rendering="geometricPrecision" shape-rendering="geometricPrecision" transform="matrix(1,0,0,1,-909,-278)" stroke="white">
      <rect x="929.789" width="107" height="44.2" y="461.796" clip-path="url(#clipPath2)" stroke="none"/>
    </g>
    <g text-rendering="geometricPrecision" stroke-miterlimit="1.45" shape-rendering="geometricPrecision" transform="matrix(1,0,0,1,-909,-278)" stroke-linecap="butt">
      <rect fill="none" x="929.789" width="107" height="44.2" y="461.796" clip-path="url(#clipPath2)"/>
    </g>
    <g fill="white" text-rendering="geometricPrecision" shape-rendering="geometricPrecision" transform="matrix(1,0,0,1,-909,-278)" stroke="white">
      <rect x="934.789" width="107" height="44.2" y="466.796" clip-path="url(#clipPath2)" stroke="none"/>
    </g>
    <g text-rendering="geometricPrecision" stroke-miterlimit="1.45" shape-rendering="geometricPrecision" transform="matrix(1,0,0,1,-909,-278)" stroke-linecap="butt">
      <rect fill="none" x="934.789" width="107" height="44.2" y="466.796" clip-path="url(#clipPath2)"/>
      <text x="965.1971" xml:space="preserve" y="491.8081" clip-path="url(#clipPath2)" font-family="'Consolas'" stroke="none">Plugins</text>
    </g>
    <g fill="white" text-rendering="geometricPrecision" shape-rendering="geometricPrecision" transform="matrix(1,0,0,1,-909,-278)" stroke="white">
      <rect x="924.789" width="107" height="44.2" y="293.396" clip-path="url(#clipPath2)" stroke="none"/>
    </g>
    <g text-rendering="geometricPrecision" stroke-miterlimit="1.45" shape-rendering="geometricPrecision" transform="matrix(1,0,0,1,-909,-278)" stroke-linecap="butt">
      <rect fill="none" x="924.789" width="107" height="44.2" y="293.396" clip-path="url(#clipPath2)"/>
    </g>
    <g fill="white" text-rendering="geometricPrecision" shape-rendering="geometricPrecision" transform="matrix(1,0,0,1,-909,-278)" stroke="white">
      <rect x="929.789" width="107" height="44.2" y="298.396" clip-path="url(#clipPath2)" stroke="none"/>
    </g>
    <g text-rendering="geometricPrecision" stroke-miterlimit="1.45" shape-rendering="geometricPrecision" transform="matrix(1,0,0,1,-909,-278)" stroke-linecap="butt">
      <rect fill="none" x="929.789" width="107" height="44.2" y="298.396" clip-path="url(#clipPath2)"/>
    </g>
    <g fill="url(#linearGradient1)" text-rendering="geometricPrecision" shape-rendering="geometricPrecision" transform="matrix(1,0,0,1,-909,-278)" stroke="url(#linearGradient1)">
      <rect x="934.789" width="107" height="44.2" y="303.396" clip-path="url(#clipPath2)" stroke="none"/>
    </g>
    <g text-rendering="geometricPrecision" stroke-miterlimit="1.45" shape-rendering="geometricPrecision" transform="matrix(1,0,0,1,-909,-278)" stroke-linecap="butt">
      <rect fill="none" x="934.789" width="107" height="44.2" y="303.396" clip-path="url(#clipPath2)"/>
      <text x="955.3007" xml:space="preserve" y="328.4081" clip-path="url(#clipPath2)" font-family="'Consolas'" stroke="none">Interfaces</text>
      <path fill="none" stroke-dasharray="8,6,0,6" d="M988.2889 426.796 L988.2889 457.796" stroke-width="2" clip-path="url(#clipPath2)" stroke-linecap="round"/>
      <path stroke-dasharray="8,6,0,6" d="M988.2889 466.796 L993.9139 453.296 L988.2889 456.671 L982.6639 453.296 Z" stroke-width="2" clip-path="url(#clipPath2)" stroke-linecap="round" stroke="none"/>
      <path fill="none" d="M988.2889 347.596 L988.2889 374.596" clip-path="url(#clipPath2)"/>
      <path d="M988.2889 382.596 L993.2889 370.596 L988.2889 373.596 L983.2889 370.596 Z" clip-path="url(#clipPath2)" stroke="none"/>
    </g>
  </g>
</svg>
